  0
SECTION
  2
HEADER
  9
$ACADVER
  1
AC1009
  9
$EXTMIN
 10
0.0
 20
0.0
 30
0.0
  9
$EXTMAX
 10
1000.0
 20
1000.0
 30
0.0
  9
$FILLMODE
 70
 0
  9
$SPLFRAME
 70
 1
  0
ENDSEC
  0
SECTION
  2
TABLES
  0
TABLE
  2
LAYER
 70
1
  0
LAYER
  2
0
 70
     0
 62
     7
  6
CONTINUOUS
  0
ENDTAB
  0
ENDSEC
  0
SECTION
  2
ENTITIES
  0
LINE
  8
0
 62
     0
 10
285.47
 20
40.9924
 30
0.0
 11
283.132
 21
40.9924
 31
0.0
  0
LINE
  8
0
 62
     0
 10
283.132
 20
40.9924
 30
0.0
 11
283.132
 21
41.6927
 31
0.0
  0
LINE
  8
0
 62
     0
 10
283.132
 20
41.6927
 30
0.0
 11
283.931
 21
41.6927
 31
0.0
  0
LINE
  8
0
 62
     0
 10
283.931
 20
41.6927
 30
0.0
 11
283.931
 21
44.7933
 31
0.0
  0
LINE
  8
0
 62
     0
 10
283.931
 20
44.7933
 30
0.0
 11
283.132
 21
44.7933
 31
0.0
  0
LINE
  8
0
 62
     0
 10
283.132
 20
44.7933
 30
0.0
 11
283.132
 21
50.5933
 31
0.0
  0
LINE
  8
0
 62
     0
 10
283.132
 20
50.5933
 30
0.0
 11
283.931
 21
50.5933
 31
0.0
  0
LINE
  8
0
 62
     0
 10
283.931
 20
50.5933
 30
0.0
 11
283.931
 21
53.6924
 31
0.0
  0
LINE
  8
0
 62
     0
 10
283.931
 20
53.6924
 30
0.0
 11
283.132
 21
53.6924
 31
0.0
  0
LINE
  8
0
 62
     0
 10
283.132
 20
53.6924
 30
0.0
 11
283.132
 21
54.6929
 31
0.0
  0
LINE
  8
0
 62
     0
 10
283.132
 20
54.6929
 30
0.0
 11
269.131
 21
54.6929
 31
0.0
  0
LINE
  8
0
 62
     0
 10
269.131
 20
54.6929
 30
0.0
 11
269.131
 21
53.6924
 31
0.0
  0
LINE
  8
0
 62
     0
 10
269.131
 20
53.6924
 30
0.0
 11
268.332
 21
53.6924
 31
0.0
  0
LINE
  8
0
 62
     0
 10
268.332
 20
53.6924
 30
0.0
 11
268.332
 21
50.5933
 31
0.0
  0
LINE
  8
0
 62
     0
 10
268.332
 20
50.5933
 30
0.0
 11
269.131
 21
50.5933
 31
0.0
  0
LINE
  8
0
 62
     0
 10
269.131
 20
50.5933
 30
0.0
 11
269.131
 21
44.7933
 31
0.0
  0
LINE
  8
0
 62
     0
 10
269.131
 20
44.7933
 30
0.0
 11
268.332
 21
44.7933
 31
0.0
  0
LINE
  8
0
 62
     0
 10
268.332
 20
44.7933
 30
0.0
 11
268.332
 21
41.6927
 31
0.0
  0
LINE
  8
0
 62
     0
 10
268.332
 20
41.6927
 30
0.0
 11
269.131
 21
41.6927
 31
0.0
  0
LINE
  8
0
 62
     0
 10
269.131
 20
41.6927
 30
0.0
 11
269.131
 21
40.6922
 31
0.0
  0
LINE
  8
0
 62
     0
 10
269.131
 20
40.6922
 30
0.0
 11
280.85
 21
40.6922
 31
0.0
  0
LINE
  8
0
 62
     0
 10
280.85
 20
40.6922
 30
0.0
 11
280.501
 21
40.5158
 31
0.0
  0
LINE
  8
0
 62
     0
 10
280.501
 20
40.5158
 30
0.0
 11
279.947
 21
39.963
 31
0.0
  0
LINE
  8
0
 62
     0
 10
279.947
 20
39.963
 30
0.0
 11
279.593
 21
39.2659
 31
0.0
  0
LINE
  8
0
 62
     0
 10
279.593
 20
39.2659
 30
0.0
 11
279.47
 21
38.4941
 31
0.0
  0
LINE
  8
0
 62
     0
 10
279.47
 20
38.4941
 30
0.0
 11
279.593
 21
37.7197
 31
0.0
  0
LINE
  8
0
 62
     0
 10
279.593
 20
37.7197
 30
0.0
 11
279.947
 21
37.0237
 31
0.0
  0
LINE
  8
0
 62
     0
 10
279.947
 20
37.0237
 30
0.0
 11
280.501
 21
36.4698
 31
0.0
  0
LINE
  8
0
 62
     0
 10
280.501
 20
36.4698
 30
0.0
 11
281.197
 21
36.1142
 31
0.0
  0
LINE
  8
0
 62
     0
 10
281.197
 20
36.1142
 30
0.0
 11
281.97
 21
35.9929
 31
0.0
  0
LINE
  8
0
 62
     0
 10
281.97
 20
35.9929
 30
0.0
 11
285.47
 21
35.9929
 31
0.0
  0
LINE
  8
0
 62
     0
 10
285.47
 20
35.9929
 30
0.0
 11
285.47
 21
0.228755
 31
0.0
  0
LINE
  8
0
 62
     0
 10
285.47
 20
0.228755
 30
0.0
 11
0.0950846
 21
0.228755
 31
0.0
  0
LINE
  8
0
 62
     0
 10
0.0950846
 20
0.228755
 30
0.0
 11
0.0950846
 21
35.9929
 31
0.0
  0
LINE
  8
0
 62
     0
 10
0.0950846
 20
35.9929
 30
0.0
 11
3.59392
 21
35.9929
 31
0.0
  0
LINE
  8
0
 62
     0
 10
3.59392
 20
35.9929
 30
0.0
 11
4.367
 21
36.1142
 31
0.0
  0
LINE
  8
0
 62
     0
 10
4.367
 20
36.1142
 30
0.0
 11
5.06293
 21
36.4698
 31
0.0
  0
LINE
  8
0
 62
     0
 10
5.06293
 20
36.4698
 30
0.0
 11
5.61689
 21
37.0237
 31
0.0
  0
LINE
  8
0
 62
     0
 10
5.61689
 20
37.0237
 30
0.0
 11
5.97242
 21
37.7197
 31
0.0
  0
LINE
  8
0
 62
     0
 10
5.97242
 20
37.7197
 30
0.0
 11
6.09505
 21
38.4926
 31
0.0
  0
LINE
  8
0
 62
     0
 10
6.09505
 20
38.4926
 30
0.0
 11
5.97242
 21
39.2659
 31
0.0
  0
LINE
  8
0
 62
     0
 10
5.97242
 20
39.2659
 30
0.0
 11
5.61689
 21
39.963
 31
0.0
  0
LINE
  8
0
 62
     0
 10
5.61689
 20
39.963
 30
0.0
 11
5.06293
 21
40.5158
 31
0.0
  0
LINE
  8
0
 62
     0
 10
5.06293
 20
40.5158
 30
0.0
 11
4.71428
 21
40.6922
 31
0.0
  0
LINE
  8
0
 62
     0
 10
4.71428
 20
40.6922
 30
0.0
 11
16.4331
 21
40.6922
 31
0.0
  0
LINE
  8
0
 62
     0
 10
16.4331
 20
40.6922
 30
0.0
 11
16.4331
 21
41.6927
 31
0.0
  0
LINE
  8
0
 62
     0
 10
16.4331
 20
41.6927
 30
0.0
 11
17.231
 21
41.6927
 31
0.0
  0
LINE
  8
0
 62
     0
 10
17.231
 20
41.6927
 30
0.0
 11
17.231
 21
44.7933
 31
0.0
  0
LINE
  8
0
 62
     0
 10
17.231
 20
44.7933
 30
0.0
 11
16.4331
 21
44.7933
 31
0.0
  0
LINE
  8
0
 62
     0
 10
16.4331
 20
44.7933
 30
0.0
 11
16.4331
 21
50.5933
 31
0.0
  0
LINE
  8
0
 62
     0
 10
16.4331
 20
50.5933
 30
0.0
 11
17.231
 21
50.5933
 31
0.0
  0
LINE
  8
0
 62
     0
 10
17.231
 20
50.5933
 30
0.0
 11
17.231
 21
53.6924
 31
0.0
  0
LINE
  8
0
 62
     0
 10
17.231
 20
53.6924
 30
0.0
 11
16.4331
 21
53.6924
 31
0.0
  0
LINE
  8
0
 62
     0
 10
16.4331
 20
53.6924
 30
0.0
 11
16.4331
 21
54.6929
 31
0.0
  0
LINE
  8
0
 62
     0
 10
16.4331
 20
54.6929
 30
0.0
 11
2.43086
 21
54.6929
 31
0.0
  0
LINE
  8
0
 62
     0
 10
2.43086
 20
54.6929
 30
0.0
 11
2.43086
 21
53.6924
 31
0.0
  0
LINE
  8
0
 62
     0
 10
2.43086
 20
53.6924
 30
0.0
 11
1.6316
 21
53.6924
 31
0.0
  0
LINE
  8
0
 62
     0
 10
1.6316
 20
53.6924
 30
0.0
 11
1.6316
 21
50.5933
 31
0.0
  0
LINE
  8
0
 62
     0
 10
1.6316
 20
50.5933
 30
0.0
 11
2.43086
 21
50.5933
 31
0.0
  0
LINE
  8
0
 62
     0
 10
2.43086
 20
50.5933
 30
0.0
 11
2.43086
 21
44.7933
 31
0.0
  0
LINE
  8
0
 62
     0
 10
2.43086
 20
44.7933
 30
0.0
 11
1.6316
 21
44.7933
 31
0.0
  0
LINE
  8
0
 62
     0
 10
1.6316
 20
44.7933
 30
0.0
 11
1.6316
 21
41.6927
 31
0.0
  0
LINE
  8
0
 62
     0
 10
1.6316
 20
41.6927
 30
0.0
 11
2.43086
 21
41.6927
 31
0.0
  0
LINE
  8
0
 62
     0
 10
2.43086
 20
41.6927
 30
0.0
 11
2.43086
 21
40.9924
 31
0.0
  0
LINE
  8
0
 62
     0
 10
2.43086
 20
40.9924
 30
0.0
 11
0.0950846
 21
40.9924
 31
0.0
  0
LINE
  8
0
 62
     0
 10
0.0950846
 20
40.9924
 30
0.0
 11
0.0950846
 21
95.1548
 31
0.0
  0
LINE
  8
0
 62
     0
 10
0.0950846
 20
95.1548
 30
0.0
 11
285.47
 21
95.1548
 31
0.0
  0
LINE
  8
0
 62
     0
 10
285.47
 20
95.1548
 30
0.0
 11
285.47
 21
40.9924
 31
0.0
  0
LINE
  8
0
 62
     0
 10
269.131
 20
16.593
 30
0.0
 11
269.131
 21
15.5939
 31
0.0
  0
LINE
  8
0
 62
     0
 10
269.131
 20
15.5939
 30
0.0
 11
268.332
 21
15.5939
 31
0.0
  0
LINE
  8
0
 62
     0
 10
268.332
 20
15.5939
 30
0.0
 11
268.332
 21
12.4919
 31
0.0
  0
LINE
  8
0
 62
     0
 10
268.332
 20
12.4919
 30
0.0
 11
269.131
 21
12.4919
 31
0.0
  0
LINE
  8
0
 62
     0
 10
269.131
 20
12.4919
 30
0.0
 11
269.131
 21
6.69315
 31
0.0
  0
LINE
  8
0
 62
     0
 10
269.131
 20
6.69315
 30
0.0
 11
268.332
 21
6.69315
 31
0.0
  0
LINE
  8
0
 62
     0
 10
268.332
 20
6.69315
 30
0.0
 11
268.332
 21
3.59392
 31
0.0
  0
LINE
  8
0
 62
     0
 10
268.332
 20
3.59392
 30
0.0
 11
269.131
 21
3.59392
 31
0.0
  0
LINE
  8
0
 62
     0
 10
269.131
 20
3.59392
 30
0.0
 11
269.131
 21
2.59347
 31
0.0
  0
LINE
  8
0
 62
     0
 10
269.131
 20
2.59347
 30
0.0
 11
283.132
 21
2.59347
 31
0.0
  0
LINE
  8
0
 62
     0
 10
283.132
 20
2.59347
 30
0.0
 11
283.132
 21
3.59392
 31
0.0
  0
LINE
  8
0
 62
     0
 10
283.132
 20
3.59392
 30
0.0
 11
283.931
 21
3.59392
 31
0.0
  0
LINE
  8
0
 62
     0
 10
283.931
 20
3.59392
 30
0.0
 11
283.931
 21
6.69315
 31
0.0
  0
LINE
  8
0
 62
     0
 10
283.931
 20
6.69315
 30
0.0
 11
283.132
 21
6.69315
 31
0.0
  0
LINE
  8
0
 62
     0
 10
283.132
 20
6.69315
 30
0.0
 11
283.132
 21
12.4919
 31
0.0
  0
LINE
  8
0
 62
     0
 10
283.132
 20
12.4919
 30
0.0
 11
283.931
 21
12.4919
 31
0.0
  0
LINE
  8
0
 62
     0
 10
283.931
 20
12.4919
 30
0.0
 11
283.931
 21
15.5939
 31
0.0
  0
LINE
  8
0
 62
     0
 10
283.931
 20
15.5939
 30
0.0
 11
283.132
 21
15.5939
 31
0.0
  0
LINE
  8
0
 62
     0
 10
283.132
 20
15.5939
 30
0.0
 11
283.132
 21
16.593
 31
0.0
  0
LINE
  8
0
 62
     0
 10
283.132
 20
16.593
 30
0.0
 11
269.131
 21
16.593
 31
0.0
  0
LINE
  8
0
 62
     0
 10
250.081
 20
16.593
 30
0.0
 11
250.081
 21
15.5939
 31
0.0
  0
LINE
  8
0
 62
     0
 10
250.081
 20
15.5939
 30
0.0
 11
249.283
 21
15.5939
 31
0.0
  0
LINE
  8
0
 62
     0
 10
249.283
 20
15.5939
 30
0.0
 11
249.283
 21
12.4919
 31
0.0
  0
LINE
  8
0
 62
     0
 10
249.283
 20
12.4919
 30
0.0
 11
250.081
 21
12.4919
 31
0.0
  0
LINE
  8
0
 62
     0
 10
250.081
 20
12.4919
 30
0.0
 11
250.081
 21
6.69315
 31
0.0
  0
LINE
  8
0
 62
     0
 10
250.081
 20
6.69315
 30
0.0
 11
249.283
 21
6.69315
 31
0.0
  0
LINE
  8
0
 62
     0
 10
249.283
 20
6.69315
 30
0.0
 11
249.283
 21
3.59392
 31
0.0
  0
LINE
  8
0
 62
     0
 10
249.283
 20
3.59392
 30
0.0
 11
250.081
 21
3.59392
 31
0.0
  0
LINE
  8
0
 62
     0
 10
250.081
 20
3.59392
 30
0.0
 11
250.081
 21
2.59347
 31
0.0
  0
LINE
  8
0
 62
     0
 10
250.081
 20
2.59347
 30
0.0
 11
264.082
 21
2.59347
 31
0.0
  0
LINE
  8
0
 62
     0
 10
264.082
 20
2.59347
 30
0.0
 11
264.082
 21
3.59392
 31
0.0
  0
LINE
  8
0
 62
     0
 10
264.082
 20
3.59392
 30
0.0
 11
264.881
 21
3.59392
 31
0.0
  0
LINE
  8
0
 62
     0
 10
264.881
 20
3.59392
 30
0.0
 11
264.881
 21
6.69315
 31
0.0
  0
LINE
  8
0
 62
     0
 10
264.881
 20
6.69315
 30
0.0
 11
264.082
 21
6.69315
 31
0.0
  0
LINE
  8
0
 62
     0
 10
264.082
 20
6.69315
 30
0.0
 11
264.082
 21
12.4919
 31
0.0
  0
LINE
  8
0
 62
     0
 10
264.082
 20
12.4919
 30
0.0
 11
264.881
 21
12.4919
 31
0.0
  0
LINE
  8
0
 62
     0
 10
264.881
 20
12.4919
 30
0.0
 11
264.881
 21
15.5939
 31
0.0
  0
LINE
  8
0
 62
     0
 10
264.881
 20
15.5939
 30
0.0
 11
264.082
 21
15.5939
 31
0.0
  0
LINE
  8
0
 62
     0
 10
264.082
 20
15.5939
 30
0.0
 11
264.082
 21
16.593
 31
0.0
  0
LINE
  8
0
 62
     0
 10
264.082
 20
16.593
 30
0.0
 11
250.081
 21
16.593
 31
0.0
  0
LINE
  8
0
 62
     0
 10
231.032
 20
16.593
 30
0.0
 11
231.032
 21
15.5939
 31
0.0
  0
LINE
  8
0
 62
     0
 10
231.032
 20
15.5939
 30
0.0
 11
230.233
 21
15.5939
 31
0.0
  0
LINE
  8
0
 62
     0
 10
230.233
 20
15.5939
 30
0.0
 11
230.233
 21
12.4919
 31
0.0
  0
LINE
  8
0
 62
     0
 10
230.233
 20
12.4919
 30
0.0
 11
231.032
 21
12.4919
 31
0.0
  0
LINE
  8
0
 62
     0
 10
231.032
 20
12.4919
 30
0.0
 11
231.032
 21
6.69315
 31
0.0
  0
LINE
  8
0
 62
     0
 10
231.032
 20
6.69315
 30
0.0
 11
230.233
 21
6.69315
 31
0.0
  0
LINE
  8
0
 62
     0
 10
230.233
 20
6.69315
 30
0.0
 11
230.233
 21
3.59392
 31
0.0
  0
LINE
  8
0
 62
     0
 10
230.233
 20
3.59392
 30
0.0
 11
231.032
 21
3.59392
 31
0.0
  0
LINE
  8
0
 62
     0
 10
231.032
 20
3.59392
 30
0.0
 11
231.032
 21
2.59347
 31
0.0
  0
LINE
  8
0
 62
     0
 10
231.032
 20
2.59347
 30
0.0
 11
245.033
 21
2.59347
 31
0.0
  0
LINE
  8
0
 62
     0
 10
245.033
 20
2.59347
 30
0.0
 11
245.033
 21
3.59392
 31
0.0
  0
LINE
  8
0
 62
     0
 10
245.033
 20
3.59392
 30
0.0
 11
245.831
 21
3.59392
 31
0.0
  0
LINE
  8
0
 62
     0
 10
245.831
 20
3.59392
 30
0.0
 11
245.831
 21
6.69315
 31
0.0
  0
LINE
  8
0
 62
     0
 10
245.831
 20
6.69315
 30
0.0
 11
245.033
 21
6.69315
 31
0.0
  0
LINE
  8
0
 62
     0
 10
245.033
 20
6.69315
 30
0.0
 11
245.033
 21
12.4919
 31
0.0
  0
LINE
  8
0
 62
     0
 10
245.033
 20
12.4919
 30
0.0
 11
245.831
 21
12.4919
 31
0.0
  0
LINE
  8
0
 62
     0
 10
245.831
 20
12.4919
 30
0.0
 11
245.831
 21
15.5939
 31
0.0
  0
LINE
  8
0
 62
     0
 10
245.831
 20
15.5939
 30
0.0
 11
245.033
 21
15.5939
 31
0.0
  0
LINE
  8
0
 62
     0
 10
245.033
 20
15.5939
 30
0.0
 11
245.033
 21
16.593
 31
0.0
  0
LINE
  8
0
 62
     0
 10
245.033
 20
16.593
 30
0.0
 11
231.032
 21
16.593
 31
0.0
  0
LINE
  8
0
 62
     0
 10
211.982
 20
16.593
 30
0.0
 11
211.982
 21
15.5939
 31
0.0
  0
LINE
  8
0
 62
     0
 10
211.982
 20
15.5939
 30
0.0
 11
211.182
 21
15.5939
 31
0.0
  0
LINE
  8
0
 62
     0
 10
211.182
 20
15.5939
 30
0.0
 11
211.182
 21
12.4919
 31
0.0
  0
LINE
  8
0
 62
     0
 10
211.182
 20
12.4919
 30
0.0
 11
211.982
 21
12.4919
 31
0.0
  0
LINE
  8
0
 62
     0
 10
211.982
 20
12.4919
 30
0.0
 11
211.982
 21
6.69315
 31
0.0
  0
LINE
  8
0
 62
     0
 10
211.982
 20
6.69315
 30
0.0
 11
211.182
 21
6.69315
 31
0.0
  0
LINE
  8
0
 62
     0
 10
211.182
 20
6.69315
 30
0.0
 11
211.182
 21
3.59392
 31
0.0
  0
LINE
  8
0
 62
     0
 10
211.182
 20
3.59392
 30
0.0
 11
211.982
 21
3.59392
 31
0.0
  0
LINE
  8
0
 62
     0
 10
211.982
 20
3.59392
 30
0.0
 11
211.982
 21
2.59347
 31
0.0
  0
LINE
  8
0
 62
     0
 10
211.982
 20
2.59347
 30
0.0
 11
225.983
 21
2.59347
 31
0.0
  0
LINE
  8
0
 62
     0
 10
225.983
 20
2.59347
 30
0.0
 11
225.983
 21
3.59392
 31
0.0
  0
LINE
  8
0
 62
     0
 10
225.983
 20
3.59392
 30
0.0
 11
226.782
 21
3.59392
 31
0.0
  0
LINE
  8
0
 62
     0
 10
226.782
 20
3.59392
 30
0.0
 11
226.782
 21
6.69315
 31
0.0
  0
LINE
  8
0
 62
     0
 10
226.782
 20
6.69315
 30
0.0
 11
225.983
 21
6.69315
 31
0.0
  0
LINE
  8
0
 62
     0
 10
225.983
 20
6.69315
 30
0.0
 11
225.983
 21
12.4919
 31
0.0
  0
LINE
  8
0
 62
     0
 10
225.983
 20
12.4919
 30
0.0
 11
226.782
 21
12.4919
 31
0.0
  0
LINE
  8
0
 62
     0
 10
226.782
 20
12.4919
 30
0.0
 11
226.782
 21
15.5939
 31
0.0
  0
LINE
  8
0
 62
     0
 10
226.782
 20
15.5939
 30
0.0
 11
225.983
 21
15.5939
 31
0.0
  0
LINE
  8
0
 62
     0
 10
225.983
 20
15.5939
 30
0.0
 11
225.983
 21
16.593
 31
0.0
  0
LINE
  8
0
 62
     0
 10
225.983
 20
16.593
 30
0.0
 11
211.982
 21
16.593
 31
0.0
  0
LINE
  8
0
 62
     0
 10
192.931
 20
16.593
 30
0.0
 11
192.931
 21
15.5939
 31
0.0
  0
LINE
  8
0
 62
     0
 10
192.931
 20
15.5939
 30
0.0
 11
192.133
 21
15.5939
 31
0.0
  0
LINE
  8
0
 62
     0
 10
192.133
 20
15.5939
 30
0.0
 11
192.133
 21
12.4919
 31
0.0
  0
LINE
  8
0
 62
     0
 10
192.133
 20
12.4919
 30
0.0
 11
192.931
 21
12.4919
 31
0.0
  0
LINE
  8
0
 62
     0
 10
192.931
 20
12.4919
 30
0.0
 11
192.931
 21
11.0133
 31
0.0
  0
LINE
  8
0
 62
     0
 10
192.931
 20
11.0133
 30
0.0
 11
192.805
 21
11.2627
 31
0.0
  0
LINE
  8
0
 62
     0
 10
192.805
 20
11.2627
 30
0.0
 11
192.253
 21
11.8139
 31
0.0
  0
LINE
  8
0
 62
     0
 10
192.253
 20
11.8139
 30
0.0
 11
191.556
 21
12.1708
 31
0.0
  0
LINE
  8
0
 62
     0
 10
191.556
 20
12.1708
 30
0.0
 11
190.783
 21
12.2921
 31
0.0
  0
LINE
  8
0
 62
     0
 10
190.783
 20
12.2921
 30
0.0
 11
190.009
 21
12.1708
 31
0.0
  0
LINE
  8
0
 62
     0
 10
190.009
 20
12.1708
 30
0.0
 11
189.312
 21
11.8139
 31
0.0
  0
LINE
  8
0
 62
     0
 10
189.312
 20
11.8139
 30
0.0
 11
188.759
 21
11.2627
 31
0.0
  0
LINE
  8
0
 62
     0
 10
188.759
 20
11.2627
 30
0.0
 11
188.406
 21
10.564
 31
0.0
  0
LINE
  8
0
 62
     0
 10
188.406
 20
10.564
 30
0.0
 11
188.283
 21
9.79233
 31
0.0
  0
LINE
  8
0
 62
     0
 10
188.283
 20
9.79233
 30
0.0
 11
188.406
 21
9.01926
 31
0.0
  0
LINE
  8
0
 62
     0
 10
188.406
 20
9.01926
 30
0.0
 11
188.759
 21
8.32337
 31
0.0
  0
LINE
  8
0
 62
     0
 10
188.759
 20
8.32337
 30
0.0
 11
189.312
 21
7.76937
 31
0.0
  0
LINE
  8
0
 62
     0
 10
189.312
 20
7.76937
 30
0.0
 11
190.009
 21
7.41521
 31
0.0
  0
LINE
  8
0
 62
     0
 10
190.009
 20
7.41521
 30
0.0
 11
190.783
 21
7.29259
 31
0.0
  0
LINE
  8
0
 62
     0
 10
190.783
 20
7.29259
 30
0.0
 11
191.556
 21
7.41521
 31
0.0
  0
LINE
  8
0
 62
     0
 10
191.556
 20
7.41521
 30
0.0
 11
192.253
 21
7.76937
 31
0.0
  0
LINE
  8
0
 62
     0
 10
192.253
 20
7.76937
 30
0.0
 11
192.805
 21
8.32337
 31
0.0
  0
LINE
  8
0
 62
     0
 10
192.805
 20
8.32337
 30
0.0
 11
192.931
 21
8.57278
 31
0.0
  0
LINE
  8
0
 62
     0
 10
192.931
 20
8.57278
 30
0.0
 11
192.931
 21
6.69315
 31
0.0
  0
LINE
  8
0
 62
     0
 10
192.931
 20
6.69315
 30
0.0
 11
192.133
 21
6.69315
 31
0.0
  0
LINE
  8
0
 62
     0
 10
192.133
 20
6.69315
 30
0.0
 11
192.133
 21
3.59392
 31
0.0
  0
LINE
  8
0
 62
     0
 10
192.133
 20
3.59392
 30
0.0
 11
192.931
 21
3.59392
 31
0.0
  0
LINE
  8
0
 62
     0
 10
192.931
 20
3.59392
 30
0.0
 11
192.931
 21
2.59347
 31
0.0
  0
LINE
  8
0
 62
     0
 10
192.931
 20
2.59347
 30
0.0
 11
206.932
 21
2.59347
 31
0.0
  0
LINE
  8
0
 62
     0
 10
206.932
 20
2.59347
 30
0.0
 11
206.932
 21
3.59392
 31
0.0
  0
LINE
  8
0
 62
     0
 10
206.932
 20
3.59392
 30
0.0
 11
207.732
 21
3.59392
 31
0.0
  0
LINE
  8
0
 62
     0
 10
207.732
 20
3.59392
 30
0.0
 11
207.732
 21
6.69315
 31
0.0
  0
LINE
  8
0
 62
     0
 10
207.732
 20
6.69315
 30
0.0
 11
206.932
 21
6.69315
 31
0.0
  0
LINE
  8
0
 62
     0
 10
206.932
 20
6.69315
 30
0.0
 11
206.932
 21
12.4919
 31
0.0
  0
LINE
  8
0
 62
     0
 10
206.932
 20
12.4919
 30
0.0
 11
207.732
 21
12.4919
 31
0.0
  0
LINE
  8
0
 62
     0
 10
207.732
 20
12.4919
 30
0.0
 11
207.732
 21
15.5939
 31
0.0
  0
LINE
  8
0
 62
     0
 10
207.732
 20
15.5939
 30
0.0
 11
206.932
 21
15.5939
 31
0.0
  0
LINE
  8
0
 62
     0
 10
206.932
 20
15.5939
 30
0.0
 11
206.932
 21
16.593
 31
0.0
  0
LINE
  8
0
 62
     0
 10
206.932
 20
16.593
 30
0.0
 11
192.931
 21
16.593
 31
0.0
  0
LINE
  8
0
 62
     0
 10
173.882
 20
16.593
 30
0.0
 11
173.882
 21
15.5939
 31
0.0
  0
LINE
  8
0
 62
     0
 10
173.882
 20
15.5939
 30
0.0
 11
173.082
 21
15.5939
 31
0.0
  0
LINE
  8
0
 62
     0
 10
173.082
 20
15.5939
 30
0.0
 11
173.082
 21
12.4919
 31
0.0
  0
LINE
  8
0
 62
     0
 10
173.082
 20
12.4919
 30
0.0
 11
173.882
 21
12.4919
 31
0.0
  0
LINE
  8
0
 62
     0
 10
173.882
 20
12.4919
 30
0.0
 11
173.882
 21
6.69315
 31
0.0
  0
LINE
  8
0
 62
     0
 10
173.882
 20
6.69315
 30
0.0
 11
173.082
 21
6.69315
 31
0.0
  0
LINE
  8
0
 62
     0
 10
173.082
 20
6.69315
 30
0.0
 11
173.082
 21
3.59392
 31
0.0
  0
LINE
  8
0
 62
     0
 10
173.082
 20
3.59392
 30
0.0
 11
173.882
 21
3.59392
 31
0.0
  0
LINE
  8
0
 62
     0
 10
173.882
 20
3.59392
 30
0.0
 11
173.882
 21
2.59347
 31
0.0
  0
LINE
  8
0
 62
     0
 10
173.882
 20
2.59347
 30
0.0
 11
187.883
 21
2.59347
 31
0.0
  0
LINE
  8
0
 62
     0
 10
187.883
 20
2.59347
 30
0.0
 11
187.883
 21
3.59392
 31
0.0
  0
LINE
  8
0
 62
     0
 10
187.883
 20
3.59392
 30
0.0
 11
188.681
 21
3.59392
 31
0.0
  0
LINE
  8
0
 62
     0
 10
188.681
 20
3.59392
 30
0.0
 11
188.681
 21
6.69315
 31
0.0
  0
LINE
  8
0
 62
     0
 10
188.681
 20
6.69315
 30
0.0
 11
187.883
 21
6.69315
 31
0.0
  0
LINE
  8
0
 62
     0
 10
187.883
 20
6.69315
 30
0.0
 11
187.883
 21
12.4919
 31
0.0
  0
LINE
  8
0
 62
     0
 10
187.883
 20
12.4919
 30
0.0
 11
188.681
 21
12.4919
 31
0.0
  0
LINE
  8
0
 62
     0
 10
188.681
 20
12.4919
 30
0.0
 11
188.681
 21
15.5939
 31
0.0
  0
LINE
  8
0
 62
     0
 10
188.681
 20
15.5939
 30
0.0
 11
187.883
 21
15.5939
 31
0.0
  0
LINE
  8
0
 62
     0
 10
187.883
 20
15.5939
 30
0.0
 11
187.883
 21
16.593
 31
0.0
  0
LINE
  8
0
 62
     0
 10
187.883
 20
16.593
 30
0.0
 11
173.882
 21
16.593
 31
0.0
  0
LINE
  8
0
 62
     0
 10
97.6824
 20
16.593
 30
0.0
 11
97.6824
 21
15.5939
 31
0.0
  0
LINE
  8
0
 62
     0
 10
97.6824
 20
15.5939
 30
0.0
 11
96.883
 21
15.5939
 31
0.0
  0
LINE
  8
0
 62
     0
 10
96.883
 20
15.5939
 30
0.0
 11
96.883
 21
12.4919
 31
0.0
  0
LINE
  8
0
 62
     0
 10
96.883
 20
12.4919
 30
0.0
 11
97.6824
 21
12.4919
 31
0.0
  0
LINE
  8
0
 62
     0
 10
97.6824
 20
12.4919
 30
0.0
 11
97.6824
 21
6.69315
 31
0.0
  0
LINE
  8
0
 62
     0
 10
97.6824
 20
6.69315
 30
0.0
 11
96.883
 21
6.69315
 31
0.0
  0
LINE
  8
0
 62
     0
 10
96.883
 20
6.69315
 30
0.0
 11
96.883
 21
3.59392
 31
0.0
  0
LINE
  8
0
 62
     0
 10
96.883
 20
3.59392
 30
0.0
 11
97.6824
 21
3.59392
 31
0.0
  0
LINE
  8
0
 62
     0
 10
97.6824
 20
3.59392
 30
0.0
 11
97.6824
 21
2.59347
 31
0.0
  0
LINE
  8
0
 62
     0
 10
97.6824
 20
2.59347
 30
0.0
 11
111.683
 21
2.59347
 31
0.0
  0
LINE
  8
0
 62
     0
 10
111.683
 20
2.59347
 30
0.0
 11
111.683
 21
3.59392
 31
0.0
  0
LINE
  8
0
 62
     0
 10
111.683
 20
3.59392
 30
0.0
 11
112.482
 21
3.59392
 31
0.0
  0
LINE
  8
0
 62
     0
 10
112.482
 20
3.59392
 30
0.0
 11
112.482
 21
6.69315
 31
0.0
  0
LINE
  8
0
 62
     0
 10
112.482
 20
6.69315
 30
0.0
 11
111.683
 21
6.69315
 31
0.0
  0
LINE
  8
0
 62
     0
 10
111.683
 20
6.69315
 30
0.0
 11
111.683
 21
12.4919
 31
0.0
  0
LINE
  8
0
 62
     0
 10
111.683
 20
12.4919
 30
0.0
 11
112.482
 21
12.4919
 31
0.0
  0
LINE
  8
0
 62
     0
 10
112.482
 20
12.4919
 30
0.0
 11
112.482
 21
15.5939
 31
0.0
  0
LINE
  8
0
 62
     0
 10
112.482
 20
15.5939
 30
0.0
 11
111.683
 21
15.5939
 31
0.0
  0
LINE
  8
0
 62
     0
 10
111.683
 20
15.5939
 30
0.0
 11
111.683
 21
16.593
 31
0.0
  0
LINE
  8
0
 62
     0
 10
111.683
 20
16.593
 30
0.0
 11
97.6824
 21
16.593
 31
0.0
  0
LINE
  8
0
 62
     0
 10
78.6324
 20
16.593
 30
0.0
 11
78.6324
 21
15.5939
 31
0.0
  0
LINE
  8
0
 62
     0
 10
78.6324
 20
15.5939
 30
0.0
 11
77.8316
 21
15.5939
 31
0.0
  0
LINE
  8
0
 62
     0
 10
77.8316
 20
15.5939
 30
0.0
 11
77.8316
 21
12.4919
 31
0.0
  0
LINE
  8
0
 62
     0
 10
77.8316
 20
12.4919
 30
0.0
 11
78.6324
 21
12.4919
 31
0.0
  0
LINE
  8
0
 62
     0
 10
78.6324
 20
12.4919
 30
0.0
 11
78.6324
 21
6.69315
 31
0.0
  0
LINE
  8
0
 62
     0
 10
78.6324
 20
6.69315
 30
0.0
 11
77.8316
 21
6.69315
 31
0.0
  0
LINE
  8
0
 62
     0
 10
77.8316
 20
6.69315
 30
0.0
 11
77.8316
 21
3.59392
 31
0.0
  0
LINE
  8
0
 62
     0
 10
77.8316
 20
3.59392
 30
0.0
 11
78.6324
 21
3.59392
 31
0.0
  0
LINE
  8
0
 62
     0
 10
78.6324
 20
3.59392
 30
0.0
 11
78.6324
 21
2.59347
 31
0.0
  0
LINE
  8
0
 62
     0
 10
78.6324
 20
2.59347
 30
0.0
 11
92.6331
 21
2.59347
 31
0.0
  0
LINE
  8
0
 62
     0
 10
92.6331
 20
2.59347
 30
0.0
 11
92.6331
 21
3.59392
 31
0.0
  0
LINE
  8
0
 62
     0
 10
92.6331
 20
3.59392
 30
0.0
 11
93.4325
 21
3.59392
 31
0.0
  0
LINE
  8
0
 62
     0
 10
93.4325
 20
3.59392
 30
0.0
 11
93.4325
 21
6.69315
 31
0.0
  0
LINE
  8
0
 62
     0
 10
93.4325
 20
6.69315
 30
0.0
 11
92.6331
 21
6.69315
 31
0.0
  0
LINE
  8
0
 62
     0
 10
92.6331
 20
6.69315
 30
0.0
 11
92.6331
 21
12.4919
 31
0.0
  0
LINE
  8
0
 62
     0
 10
92.6331
 20
12.4919
 30
0.0
 11
93.4325
 21
12.4919
 31
0.0
  0
LINE
  8
0
 62
     0
 10
93.4325
 20
12.4919
 30
0.0
 11
93.4325
 21
15.5939
 31
0.0
  0
LINE
  8
0
 62
     0
 10
93.4325
 20
15.5939
 30
0.0
 11
92.6331
 21
15.5939
 31
0.0
  0
LINE
  8
0
 62
     0
 10
92.6331
 20
15.5939
 30
0.0
 11
92.6331
 21
16.593
 31
0.0
  0
LINE
  8
0
 62
     0
 10
92.6331
 20
16.593
 30
0.0
 11
78.6324
 21
16.593
 31
0.0
  0
LINE
  8
0
 62
     0
 10
59.581
 20
16.593
 30
0.0
 11
59.581
 21
15.5939
 31
0.0
  0
LINE
  8
0
 62
     0
 10
59.581
 20
15.5939
 30
0.0
 11
58.7816
 21
15.5939
 31
0.0
  0
LINE
  8
0
 62
     0
 10
58.7816
 20
15.5939
 30
0.0
 11
58.7816
 21
12.4919
 31
0.0
  0
LINE
  8
0
 62
     0
 10
58.7816
 20
12.4919
 30
0.0
 11
59.581
 21
12.4919
 31
0.0
  0
LINE
  8
0
 62
     0
 10
59.581
 20
12.4919
 30
0.0
 11
59.581
 21
6.69315
 31
0.0
  0
LINE
  8
0
 62
     0
 10
59.581
 20
6.69315
 30
0.0
 11
58.7816
 21
6.69315
 31
0.0
  0
LINE
  8
0
 62
     0
 10
58.7816
 20
6.69315
 30
0.0
 11
58.7816
 21
3.59392
 31
0.0
  0
LINE
  8
0
 62
     0
 10
58.7816
 20
3.59392
 30
0.0
 11
59.581
 21
3.59392
 31
0.0
  0
LINE
  8
0
 62
     0
 10
59.581
 20
3.59392
 30
0.0
 11
59.581
 21
2.59347
 31
0.0
  0
LINE
  8
0
 62
     0
 10
59.581
 20
2.59347
 30
0.0
 11
73.5817
 21
2.59347
 31
0.0
  0
LINE
  8
0
 62
     0
 10
73.5817
 20
2.59347
 30
0.0
 11
73.5817
 21
3.59392
 31
0.0
  0
LINE
  8
0
 62
     0
 10
73.5817
 20
3.59392
 30
0.0
 11
74.3825
 21
3.59392
 31
0.0
  0
LINE
  8
0
 62
     0
 10
74.3825
 20
3.59392
 30
0.0
 11
74.3825
 21
6.69315
 31
0.0
  0
LINE
  8
0
 62
     0
 10
74.3825
 20
6.69315
 30
0.0
 11
73.5817
 21
6.69315
 31
0.0
  0
LINE
  8
0
 62
     0
 10
73.5817
 20
6.69315
 30
0.0
 11
73.5817
 21
12.4919
 31
0.0
  0
LINE
  8
0
 62
     0
 10
73.5817
 20
12.4919
 30
0.0
 11
74.3825
 21
12.4919
 31
0.0
  0
LINE
  8
0
 62
     0
 10
74.3825
 20
12.4919
 30
0.0
 11
74.3825
 21
15.5939
 31
0.0
  0
LINE
  8
0
 62
     0
 10
74.3825
 20
15.5939
 30
0.0
 11
73.5817
 21
15.5939
 31
0.0
  0
LINE
  8
0
 62
     0
 10
73.5817
 20
15.5939
 30
0.0
 11
73.5817
 21
16.593
 31
0.0
  0
LINE
  8
0
 62
     0
 10
73.5817
 20
16.593
 30
0.0
 11
59.581
 21
16.593
 31
0.0
  0
LINE
  8
0
 62
     0
 10
40.531
 20
16.593
 30
0.0
 11
40.531
 21
15.5939
 31
0.0
  0
LINE
  8
0
 62
     0
 10
40.531
 20
15.5939
 30
0.0
 11
39.7316
 21
15.5939
 31
0.0
  0
LINE
  8
0
 62
     0
 10
39.7316
 20
15.5939
 30
0.0
 11
39.7316
 21
12.4919
 31
0.0
  0
LINE
  8
0
 62
     0
 10
39.7316
 20
12.4919
 30
0.0
 11
40.531
 21
12.4919
 31
0.0
  0
LINE
  8
0
 62
     0
 10
40.531
 20
12.4919
 30
0.0
 11
40.531
 21
6.69315
 31
0.0
  0
LINE
  8
0
 62
     0
 10
40.531
 20
6.69315
 30
0.0
 11
39.7316
 21
6.69315
 31
0.0
  0
LINE
  8
0
 62
     0
 10
39.7316
 20
6.69315
 30
0.0
 11
39.7316
 21
3.59392
 31
0.0
  0
LINE
  8
0
 62
     0
 10
39.7316
 20
3.59392
 30
0.0
 11
40.531
 21
3.59392
 31
0.0
  0
LINE
  8
0
 62
     0
 10
40.531
 20
3.59392
 30
0.0
 11
40.531
 21
2.59347
 31
0.0
  0
LINE
  8
0
 62
     0
 10
40.531
 20
2.59347
 30
0.0
 11
54.5317
 21
2.59347
 31
0.0
  0
LINE
  8
0
 62
     0
 10
54.5317
 20
2.59347
 30
0.0
 11
54.5317
 21
3.59392
 31
0.0
  0
LINE
  8
0
 62
     0
 10
54.5317
 20
3.59392
 30
0.0
 11
55.3311
 21
3.59392
 31
0.0
  0
LINE
  8
0
 62
     0
 10
55.3311
 20
3.59392
 30
0.0
 11
55.3311
 21
6.69315
 31
0.0
  0
LINE
  8
0
 62
     0
 10
55.3311
 20
6.69315
 30
0.0
 11
54.5317
 21
6.69315
 31
0.0
  0
LINE
  8
0
 62
     0
 10
54.5317
 20
6.69315
 30
0.0
 11
54.5317
 21
12.4919
 31
0.0
  0
LINE
  8
0
 62
     0
 10
54.5317
 20
12.4919
 30
0.0
 11
55.3311
 21
12.4919
 31
0.0
  0
LINE
  8
0
 62
     0
 10
55.3311
 20
12.4919
 30
0.0
 11
55.3311
 21
15.5939
 31
0.0
  0
LINE
  8
0
 62
     0
 10
55.3311
 20
15.5939
 30
0.0
 11
54.5317
 21
15.5939
 31
0.0
  0
LINE
  8
0
 62
     0
 10
54.5317
 20
15.5939
 30
0.0
 11
54.5317
 21
16.593
 31
0.0
  0
LINE
  8
0
 62
     0
 10
54.5317
 20
16.593
 30
0.0
 11
40.531
 21
16.593
 31
0.0
  0
LINE
  8
0
 62
     0
 10
21.4809
 20
16.593
 30
0.0
 11
21.4809
 21
15.5939
 31
0.0
  0
LINE
  8
0
 62
     0
 10
21.4809
 20
15.5939
 30
0.0
 11
20.683
 21
15.5939
 31
0.0
  0
LINE
  8
0
 62
     0
 10
20.683
 20
15.5939
 30
0.0
 11
20.683
 21
12.4919
 31
0.0
  0
LINE
  8
0
 62
     0
 10
20.683
 20
12.4919
 30
0.0
 11
21.4809
 21
12.4919
 31
0.0
  0
LINE
  8
0
 62
     0
 10
21.4809
 20
12.4919
 30
0.0
 11
21.4809
 21
6.69315
 31
0.0
  0
LINE
  8
0
 62
     0
 10
21.4809
 20
6.69315
 30
0.0
 11
20.683
 21
6.69315
 31
0.0
  0
LINE
  8
0
 62
     0
 10
20.683
 20
6.69315
 30
0.0
 11
20.683
 21
3.59392
 31
0.0
  0
LINE
  8
0
 62
     0
 10
20.683
 20
3.59392
 30
0.0
 11
21.4809
 21
3.59392
 31
0.0
  0
LINE
  8
0
 62
     0
 10
21.4809
 20
3.59392
 30
0.0
 11
21.4809
 21
2.59347
 31
0.0
  0
LINE
  8
0
 62
     0
 10
21.4809
 20
2.59347
 30
0.0
 11
35.4817
 21
2.59347
 31
0.0
  0
LINE
  8
0
 62
     0
 10
35.4817
 20
2.59347
 30
0.0
 11
35.4817
 21
3.59392
 31
0.0
  0
LINE
  8
0
 62
     0
 10
35.4817
 20
3.59392
 30
0.0
 11
36.2811
 21
3.59392
 31
0.0
  0
LINE
  8
0
 62
     0
 10
36.2811
 20
3.59392
 30
0.0
 11
36.2811
 21
6.69315
 31
0.0
  0
LINE
  8
0
 62
     0
 10
36.2811
 20
6.69315
 30
0.0
 11
35.4817
 21
6.69315
 31
0.0
  0
LINE
  8
0
 62
     0
 10
35.4817
 20
6.69315
 30
0.0
 11
35.4817
 21
12.4919
 31
0.0
  0
LINE
  8
0
 62
     0
 10
35.4817
 20
12.4919
 30
0.0
 11
36.2811
 21
12.4919
 31
0.0
  0
LINE
  8
0
 62
     0
 10
36.2811
 20
12.4919
 30
0.0
 11
36.2811
 21
15.5939
 31
0.0
  0
LINE
  8
0
 62
     0
 10
36.2811
 20
15.5939
 30
0.0
 11
35.4817
 21
15.5939
 31
0.0
  0
LINE
  8
0
 62
     0
 10
35.4817
 20
15.5939
 30
0.0
 11
35.4817
 21
16.593
 31
0.0
  0
LINE
  8
0
 62
     0
 10
35.4817
 20
16.593
 30
0.0
 11
21.4809
 21
16.593
 31
0.0
  0
LINE
  8
0
 62
     0
 10
2.43086
 20
16.593
 30
0.0
 11
2.43086
 21
15.5939
 31
0.0
  0
LINE
  8
0
 62
     0
 10
2.43086
 20
15.5939
 30
0.0
 11
1.6316
 21
15.5939
 31
0.0
  0
LINE
  8
0
 62
     0
 10
1.6316
 20
15.5939
 30
0.0
 11
1.6316
 21
12.4919
 31
0.0
  0
LINE
  8
0
 62
     0
 10
1.6316
 20
12.4919
 30
0.0
 11
2.43086
 21
12.4919
 31
0.0
  0
LINE
  8
0
 62
     0
 10
2.43086
 20
12.4919
 30
0.0
 11
2.43086
 21
6.69315
 31
0.0
  0
LINE
  8
0
 62
     0
 10
2.43086
 20
6.69315
 30
0.0
 11
1.6316
 21
6.69315
 31
0.0
  0
LINE
  8
0
 62
     0
 10
1.6316
 20
6.69315
 30
0.0
 11
1.6316
 21
3.59392
 31
0.0
  0
LINE
  8
0
 62
     0
 10
1.6316
 20
3.59392
 30
0.0
 11
2.43086
 21
3.59392
 31
0.0
  0
LINE
  8
0
 62
     0
 10
2.43086
 20
3.59392
 30
0.0
 11
2.43086
 21
2.59347
 31
0.0
  0
LINE
  8
0
 62
     0
 10
2.43086
 20
2.59347
 30
0.0
 11
16.4331
 21
2.59347
 31
0.0
  0
LINE
  8
0
 62
     0
 10
16.4331
 20
2.59347
 30
0.0
 11
16.4331
 21
3.59392
 31
0.0
  0
LINE
  8
0
 62
     0
 10
16.4331
 20
3.59392
 30
0.0
 11
17.231
 21
3.59392
 31
0.0
  0
LINE
  8
0
 62
     0
 10
17.231
 20
3.59392
 30
0.0
 11
17.231
 21
6.69315
 31
0.0
  0
LINE
  8
0
 62
     0
 10
17.231
 20
6.69315
 30
0.0
 11
16.4331
 21
6.69315
 31
0.0
  0
LINE
  8
0
 62
     0
 10
16.4331
 20
6.69315
 30
0.0
 11
16.4331
 21
12.4919
 31
0.0
  0
LINE
  8
0
 62
     0
 10
16.4331
 20
12.4919
 30
0.0
 11
17.231
 21
12.4919
 31
0.0
  0
LINE
  8
0
 62
     0
 10
17.231
 20
12.4919
 30
0.0
 11
17.231
 21
15.5939
 31
0.0
  0
LINE
  8
0
 62
     0
 10
17.231
 20
15.5939
 30
0.0
 11
16.4331
 21
15.5939
 31
0.0
  0
LINE
  8
0
 62
     0
 10
16.4331
 20
15.5939
 30
0.0
 11
16.4331
 21
16.593
 31
0.0
  0
LINE
  8
0
 62
     0
 10
16.4331
 20
16.593
 30
0.0
 11
2.43086
 21
16.593
 31
0.0
  0
LINE
  8
0
 62
     0
 10
269.131
 20
35.6429
 30
0.0
 11
269.131
 21
34.6439
 31
0.0
  0
LINE
  8
0
 62
     0
 10
269.131
 20
34.6439
 30
0.0
 11
268.332
 21
34.6439
 31
0.0
  0
LINE
  8
0
 62
     0
 10
268.332
 20
34.6439
 30
0.0
 11
268.332
 21
31.5433
 31
0.0
  0
LINE
  8
0
 62
     0
 10
268.332
 20
31.5433
 30
0.0
 11
269.131
 21
31.5433
 31
0.0
  0
LINE
  8
0
 62
     0
 10
269.131
 20
31.5433
 30
0.0
 11
269.131
 21
25.7431
 31
0.0
  0
LINE
  8
0
 62
     0
 10
269.131
 20
25.7431
 30
0.0
 11
268.332
 21
25.7431
 31
0.0
  0
LINE
  8
0
 62
     0
 10
268.332
 20
25.7431
 30
0.0
 11
268.332
 21
22.6439
 31
0.0
  0
LINE
  8
0
 62
     0
 10
268.332
 20
22.6439
 30
0.0
 11
269.131
 21
22.6439
 31
0.0
  0
LINE
  8
0
 62
     0
 10
269.131
 20
22.6439
 30
0.0
 11
269.131
 21
21.6435
 31
0.0
  0
LINE
  8
0
 62
     0
 10
269.131
 20
21.6435
 30
0.0
 11
283.132
 21
21.6435
 31
0.0
  0
LINE
  8
0
 62
     0
 10
283.132
 20
21.6435
 30
0.0
 11
283.132
 21
22.6439
 31
0.0
  0
LINE
  8
0
 62
     0
 10
283.132
 20
22.6439
 30
0.0
 11
283.931
 21
22.6439
 31
0.0
  0
LINE
  8
0
 62
     0
 10
283.931
 20
22.6439
 30
0.0
 11
283.931
 21
25.7431
 31
0.0
  0
LINE
  8
0
 62
     0
 10
283.931
 20
25.7431
 30
0.0
 11
283.132
 21
25.7431
 31
0.0
  0
LINE
  8
0
 62
     0
 10
283.132
 20
25.7431
 30
0.0
 11
283.132
 21
31.5433
 31
0.0
  0
LINE
  8
0
 62
     0
 10
283.132
 20
31.5433
 30
0.0
 11
283.931
 21
31.5433
 31
0.0
  0
LINE
  8
0
 62
     0
 10
283.931
 20
31.5433
 30
0.0
 11
283.931
 21
34.6439
 31
0.0
  0
LINE
  8
0
 62
     0
 10
283.931
 20
34.6439
 30
0.0
 11
283.132
 21
34.6439
 31
0.0
  0
LINE
  8
0
 62
     0
 10
283.132
 20
34.6439
 30
0.0
 11
283.132
 21
35.6429
 31
0.0
  0
LINE
  8
0
 62
     0
 10
283.132
 20
35.6429
 30
0.0
 11
269.131
 21
35.6429
 31
0.0
  0
LINE
  8
0
 62
     0
 10
250.081
 20
35.6429
 30
0.0
 11
250.081
 21
34.6439
 31
0.0
  0
LINE
  8
0
 62
     0
 10
250.081
 20
34.6439
 30
0.0
 11
249.283
 21
34.6439
 31
0.0
  0
LINE
  8
0
 62
     0
 10
249.283
 20
34.6439
 30
0.0
 11
249.283
 21
31.5433
 31
0.0
  0
LINE
  8
0
 62
     0
 10
249.283
 20
31.5433
 30
0.0
 11
250.081
 21
31.5433
 31
0.0
  0
LINE
  8
0
 62
     0
 10
250.081
 20
31.5433
 30
0.0
 11
250.081
 21
25.7431
 31
0.0
  0
LINE
  8
0
 62
     0
 10
250.081
 20
25.7431
 30
0.0
 11
249.283
 21
25.7431
 31
0.0
  0
LINE
  8
0
 62
     0
 10
249.283
 20
25.7431
 30
0.0
 11
249.283
 21
22.6439
 31
0.0
  0
LINE
  8
0
 62
     0
 10
249.283
 20
22.6439
 30
0.0
 11
250.081
 21
22.6439
 31
0.0
  0
LINE
  8
0
 62
     0
 10
250.081
 20
22.6439
 30
0.0
 11
250.081
 21
21.6435
 31
0.0
  0
LINE
  8
0
 62
     0
 10
250.081
 20
21.6435
 30
0.0
 11
264.082
 21
21.6435
 31
0.0
  0
LINE
  8
0
 62
     0
 10
264.082
 20
21.6435
 30
0.0
 11
264.082
 21
22.6439
 31
0.0
  0
LINE
  8
0
 62
     0
 10
264.082
 20
22.6439
 30
0.0
 11
264.881
 21
22.6439
 31
0.0
  0
LINE
  8
0
 62
     0
 10
264.881
 20
22.6439
 30
0.0
 11
264.881
 21
25.7431
 31
0.0
  0
LINE
  8
0
 62
     0
 10
264.881
 20
25.7431
 30
0.0
 11
264.082
 21
25.7431
 31
0.0
  0
LINE
  8
0
 62
     0
 10
264.082
 20
25.7431
 30
0.0
 11
264.082
 21
31.5433
 31
0.0
  0
LINE
  8
0
 62
     0
 10
264.082
 20
31.5433
 30
0.0
 11
264.881
 21
31.5433
 31
0.0
  0
LINE
  8
0
 62
     0
 10
264.881
 20
31.5433
 30
0.0
 11
264.881
 21
34.6439
 31
0.0
  0
LINE
  8
0
 62
     0
 10
264.881
 20
34.6439
 30
0.0
 11
264.082
 21
34.6439
 31
0.0
  0
LINE
  8
0
 62
     0
 10
264.082
 20
34.6439
 30
0.0
 11
264.082
 21
35.6429
 31
0.0
  0
LINE
  8
0
 62
     0
 10
264.082
 20
35.6429
 30
0.0
 11
250.081
 21
35.6429
 31
0.0
  0
LINE
  8
0
 62
     0
 10
231.032
 20
35.6429
 30
0.0
 11
231.032
 21
34.6439
 31
0.0
  0
LINE
  8
0
 62
     0
 10
231.032
 20
34.6439
 30
0.0
 11
230.233
 21
34.6439
 31
0.0
  0
LINE
  8
0
 62
     0
 10
230.233
 20
34.6439
 30
0.0
 11
230.233
 21
31.5433
 31
0.0
  0
LINE
  8
0
 62
     0
 10
230.233
 20
31.5433
 30
0.0
 11
231.032
 21
31.5433
 31
0.0
  0
LINE
  8
0
 62
     0
 10
231.032
 20
31.5433
 30
0.0
 11
231.032
 21
25.7431
 31
0.0
  0
LINE
  8
0
 62
     0
 10
231.032
 20
25.7431
 30
0.0
 11
230.233
 21
25.7431
 31
0.0
  0
LINE
  8
0
 62
     0
 10
230.233
 20
25.7431
 30
0.0
 11
230.233
 21
22.6439
 31
0.0
  0
LINE
  8
0
 62
     0
 10
230.233
 20
22.6439
 30
0.0
 11
231.032
 21
22.6439
 31
0.0
  0
LINE
  8
0
 62
     0
 10
231.032
 20
22.6439
 30
0.0
 11
231.032
 21
21.6435
 31
0.0
  0
LINE
  8
0
 62
     0
 10
231.032
 20
21.6435
 30
0.0
 11
245.033
 21
21.6435
 31
0.0
  0
LINE
  8
0
 62
     0
 10
245.033
 20
21.6435
 30
0.0
 11
245.033
 21
22.6439
 31
0.0
  0
LINE
  8
0
 62
     0
 10
245.033
 20
22.6439
 30
0.0
 11
245.831
 21
22.6439
 31
0.0
  0
LINE
  8
0
 62
     0
 10
245.831
 20
22.6439
 30
0.0
 11
245.831
 21
25.7431
 31
0.0
  0
LINE
  8
0
 62
     0
 10
245.831
 20
25.7431
 30
0.0
 11
245.033
 21
25.7431
 31
0.0
  0
LINE
  8
0
 62
     0
 10
245.033
 20
25.7431
 30
0.0
 11
245.033
 21
31.5433
 31
0.0
  0
LINE
  8
0
 62
     0
 10
245.033
 20
31.5433
 30
0.0
 11
245.831
 21
31.5433
 31
0.0
  0
LINE
  8
0
 62
     0
 10
245.831
 20
31.5433
 30
0.0
 11
245.831
 21
34.6439
 31
0.0
  0
LINE
  8
0
 62
     0
 10
245.831
 20
34.6439
 30
0.0
 11
245.033
 21
34.6439
 31
0.0
  0
LINE
  8
0
 62
     0
 10
245.033
 20
34.6439
 30
0.0
 11
245.033
 21
35.6429
 31
0.0
  0
LINE
  8
0
 62
     0
 10
245.033
 20
35.6429
 30
0.0
 11
231.032
 21
35.6429
 31
0.0
  0
LINE
  8
0
 62
     0
 10
211.982
 20
35.6429
 30
0.0
 11
211.982
 21
34.6439
 31
0.0
  0
LINE
  8
0
 62
     0
 10
211.982
 20
34.6439
 30
0.0
 11
211.182
 21
34.6439
 31
0.0
  0
LINE
  8
0
 62
     0
 10
211.182
 20
34.6439
 30
0.0
 11
211.182
 21
31.5433
 31
0.0
  0
LINE
  8
0
 62
     0
 10
211.182
 20
31.5433
 30
0.0
 11
211.982
 21
31.5433
 31
0.0
  0
LINE
  8
0
 62
     0
 10
211.982
 20
31.5433
 30
0.0
 11
211.982
 21
25.7431
 31
0.0
  0
LINE
  8
0
 62
     0
 10
211.982
 20
25.7431
 30
0.0
 11
211.182
 21
25.7431
 31
0.0
  0
LINE
  8
0
 62
     0
 10
211.182
 20
25.7431
 30
0.0
 11
211.182
 21
22.6439
 31
0.0
  0
LINE
  8
0
 62
     0
 10
211.182
 20
22.6439
 30
0.0
 11
211.982
 21
22.6439
 31
0.0
  0
LINE
  8
0
 62
     0
 10
211.982
 20
22.6439
 30
0.0
 11
211.982
 21
21.6435
 31
0.0
  0
LINE
  8
0
 62
     0
 10
211.982
 20
21.6435
 30
0.0
 11
225.983
 21
21.6435
 31
0.0
  0
LINE
  8
0
 62
     0
 10
225.983
 20
21.6435
 30
0.0
 11
225.983
 21
22.6439
 31
0.0
  0
LINE
  8
0
 62
     0
 10
225.983
 20
22.6439
 30
0.0
 11
226.782
 21
22.6439
 31
0.0
  0
LINE
  8
0
 62
     0
 10
226.782
 20
22.6439
 30
0.0
 11
226.782
 21
25.7431
 31
0.0
  0
LINE
  8
0
 62
     0
 10
226.782
 20
25.7431
 30
0.0
 11
225.983
 21
25.7431
 31
0.0
  0
LINE
  8
0
 62
     0
 10
225.983
 20
25.7431
 30
0.0
 11
225.983
 21
31.5433
 31
0.0
  0
LINE
  8
0
 62
     0
 10
225.983
 20
31.5433
 30
0.0
 11
226.782
 21
31.5433
 31
0.0
  0
LINE
  8
0
 62
     0
 10
226.782
 20
31.5433
 30
0.0
 11
226.782
 21
34.6439
 31
0.0
  0
LINE
  8
0
 62
     0
 10
226.782
 20
34.6439
 30
0.0
 11
225.983
 21
34.6439
 31
0.0
  0
LINE
  8
0
 62
     0
 10
225.983
 20
34.6439
 30
0.0
 11
225.983
 21
35.6429
 31
0.0
  0
LINE
  8
0
 62
     0
 10
225.983
 20
35.6429
 30
0.0
 11
211.982
 21
35.6429
 31
0.0
  0
LINE
  8
0
 62
     0
 10
192.931
 20
35.6429
 30
0.0
 11
192.931
 21
34.6439
 31
0.0
  0
LINE
  8
0
 62
     0
 10
192.931
 20
34.6439
 30
0.0
 11
192.133
 21
34.6439
 31
0.0
  0
LINE
  8
0
 62
     0
 10
192.133
 20
34.6439
 30
0.0
 11
192.133
 21
31.5433
 31
0.0
  0
LINE
  8
0
 62
     0
 10
192.133
 20
31.5433
 30
0.0
 11
192.931
 21
31.5433
 31
0.0
  0
LINE
  8
0
 62
     0
 10
192.931
 20
31.5433
 30
0.0
 11
192.931
 21
25.7431
 31
0.0
  0
LINE
  8
0
 62
     0
 10
192.931
 20
25.7431
 30
0.0
 11
192.133
 21
25.7431
 31
0.0
  0
LINE
  8
0
 62
     0
 10
192.133
 20
25.7431
 30
0.0
 11
192.133
 21
22.6439
 31
0.0
  0
LINE
  8
0
 62
     0
 10
192.133
 20
22.6439
 30
0.0
 11
192.931
 21
22.6439
 31
0.0
  0
LINE
  8
0
 62
     0
 10
192.931
 20
22.6439
 30
0.0
 11
192.931
 21
21.6435
 31
0.0
  0
LINE
  8
0
 62
     0
 10
192.931
 20
21.6435
 30
0.0
 11
206.932
 21
21.6435
 31
0.0
  0
LINE
  8
0
 62
     0
 10
206.932
 20
21.6435
 30
0.0
 11
206.932
 21
22.6439
 31
0.0
  0
LINE
  8
0
 62
     0
 10
206.932
 20
22.6439
 30
0.0
 11
207.732
 21
22.6439
 31
0.0
  0
LINE
  8
0
 62
     0
 10
207.732
 20
22.6439
 30
0.0
 11
207.732
 21
25.7431
 31
0.0
  0
LINE
  8
0
 62
     0
 10
207.732
 20
25.7431
 30
0.0
 11
206.932
 21
25.7431
 31
0.0
  0
LINE
  8
0
 62
     0
 10
206.932
 20
25.7431
 30
0.0
 11
206.932
 21
31.5433
 31
0.0
  0
LINE
  8
0
 62
     0
 10
206.932
 20
31.5433
 30
0.0
 11
207.732
 21
31.5433
 31
0.0
  0
LINE
  8
0
 62
     0
 10
207.732
 20
31.5433
 30
0.0
 11
207.732
 21
34.6439
 31
0.0
  0
LINE
  8
0
 62
     0
 10
207.732
 20
34.6439
 30
0.0
 11
206.932
 21
34.6439
 31
0.0
  0
LINE
  8
0
 62
     0
 10
206.932
 20
34.6439
 30
0.0
 11
206.932
 21
35.6429
 31
0.0
  0
LINE
  8
0
 62
     0
 10
206.932
 20
35.6429
 30
0.0
 11
192.931
 21
35.6429
 31
0.0
  0
LINE
  8
0
 62
     0
 10
173.882
 20
35.6429
 30
0.0
 11
173.882
 21
34.6439
 31
0.0
  0
LINE
  8
0
 62
     0
 10
173.882
 20
34.6439
 30
0.0
 11
173.082
 21
34.6439
 31
0.0
  0
LINE
  8
0
 62
     0
 10
173.082
 20
34.6439
 30
0.0
 11
173.082
 21
31.5433
 31
0.0
  0
LINE
  8
0
 62
     0
 10
173.082
 20
31.5433
 30
0.0
 11
173.882
 21
31.5433
 31
0.0
  0
LINE
  8
0
 62
     0
 10
173.882
 20
31.5433
 30
0.0
 11
173.882
 21
25.7431
 31
0.0
  0
LINE
  8
0
 62
     0
 10
173.882
 20
25.7431
 30
0.0
 11
173.082
 21
25.7431
 31
0.0
  0
LINE
  8
0
 62
     0
 10
173.082
 20
25.7431
 30
0.0
 11
173.082
 21
22.6439
 31
0.0
  0
LINE
  8
0
 62
     0
 10
173.082
 20
22.6439
 30
0.0
 11
173.882
 21
22.6439
 31
0.0
  0
LINE
  8
0
 62
     0
 10
173.882
 20
22.6439
 30
0.0
 11
173.882
 21
21.6435
 31
0.0
  0
LINE
  8
0
 62
     0
 10
173.882
 20
21.6435
 30
0.0
 11
187.883
 21
21.6435
 31
0.0
  0
LINE
  8
0
 62
     0
 10
187.883
 20
21.6435
 30
0.0
 11
187.883
 21
22.6439
 31
0.0
  0
LINE
  8
0
 62
     0
 10
187.883
 20
22.6439
 30
0.0
 11
188.681
 21
22.6439
 31
0.0
  0
LINE
  8
0
 62
     0
 10
188.681
 20
22.6439
 30
0.0
 11
188.681
 21
25.7431
 31
0.0
  0
LINE
  8
0
 62
     0
 10
188.681
 20
25.7431
 30
0.0
 11
187.883
 21
25.7431
 31
0.0
  0
LINE
  8
0
 62
     0
 10
187.883
 20
25.7431
 30
0.0
 11
187.883
 21
31.5433
 31
0.0
  0
LINE
  8
0
 62
     0
 10
187.883
 20
31.5433
 30
0.0
 11
188.681
 21
31.5433
 31
0.0
  0
LINE
  8
0
 62
     0
 10
188.681
 20
31.5433
 30
0.0
 11
188.681
 21
34.6439
 31
0.0
  0
LINE
  8
0
 62
     0
 10
188.681
 20
34.6439
 30
0.0
 11
187.883
 21
34.6439
 31
0.0
  0
LINE
  8
0
 62
     0
 10
187.883
 20
34.6439
 30
0.0
 11
187.883
 21
35.6429
 31
0.0
  0
LINE
  8
0
 62
     0
 10
187.883
 20
35.6429
 30
0.0
 11
173.882
 21
35.6429
 31
0.0
  0
LINE
  8
0
 62
     0
 10
97.6824
 20
35.6429
 30
0.0
 11
97.6824
 21
34.6439
 31
0.0
  0
LINE
  8
0
 62
     0
 10
97.6824
 20
34.6439
 30
0.0
 11
96.883
 21
34.6439
 31
0.0
  0
LINE
  8
0
 62
     0
 10
96.883
 20
34.6439
 30
0.0
 11
96.883
 21
31.5433
 31
0.0
  0
LINE
  8
0
 62
     0
 10
96.883
 20
31.5433
 30
0.0
 11
97.6824
 21
31.5433
 31
0.0
  0
LINE
  8
0
 62
     0
 10
97.6824
 20
31.5433
 30
0.0
 11
97.6824
 21
25.7431
 31
0.0
  0
LINE
  8
0
 62
     0
 10
97.6824
 20
25.7431
 30
0.0
 11
96.883
 21
25.7431
 31
0.0
  0
LINE
  8
0
 62
     0
 10
96.883
 20
25.7431
 30
0.0
 11
96.883
 21
22.6439
 31
0.0
  0
LINE
  8
0
 62
     0
 10
96.883
 20
22.6439
 30
0.0
 11
97.6824
 21
22.6439
 31
0.0
  0
LINE
  8
0
 62
     0
 10
97.6824
 20
22.6439
 30
0.0
 11
97.6824
 21
21.6435
 31
0.0
  0
LINE
  8
0
 62
     0
 10
97.6824
 20
21.6435
 30
0.0
 11
111.683
 21
21.6435
 31
0.0
  0
LINE
  8
0
 62
     0
 10
111.683
 20
21.6435
 30
0.0
 11
111.683
 21
22.6439
 31
0.0
  0
LINE
  8
0
 62
     0
 10
111.683
 20
22.6439
 30
0.0
 11
112.482
 21
22.6439
 31
0.0
  0
LINE
  8
0
 62
     0
 10
112.482
 20
22.6439
 30
0.0
 11
112.482
 21
25.7431
 31
0.0
  0
LINE
  8
0
 62
     0
 10
112.482
 20
25.7431
 30
0.0
 11
111.683
 21
25.7431
 31
0.0
  0
LINE
  8
0
 62
     0
 10
111.683
 20
25.7431
 30
0.0
 11
111.683
 21
31.5433
 31
0.0
  0
LINE
  8
0
 62
     0
 10
111.683
 20
31.5433
 30
0.0
 11
112.482
 21
31.5433
 31
0.0
  0
LINE
  8
0
 62
     0
 10
112.482
 20
31.5433
 30
0.0
 11
112.482
 21
34.6439
 31
0.0
  0
LINE
  8
0
 62
     0
 10
112.482
 20
34.6439
 30
0.0
 11
111.683
 21
34.6439
 31
0.0
  0
LINE
  8
0
 62
     0
 10
111.683
 20
34.6439
 30
0.0
 11
111.683
 21
35.6429
 31
0.0
  0
LINE
  8
0
 62
     0
 10
111.683
 20
35.6429
 30
0.0
 11
97.6824
 21
35.6429
 31
0.0
  0
LINE
  8
0
 62
     0
 10
78.6324
 20
35.6429
 30
0.0
 11
78.6324
 21
34.6439
 31
0.0
  0
LINE
  8
0
 62
     0
 10
78.6324
 20
34.6439
 30
0.0
 11
77.8316
 21
34.6439
 31
0.0
  0
LINE
  8
0
 62
     0
 10
77.8316
 20
34.6439
 30
0.0
 11
77.8316
 21
31.5433
 31
0.0
  0
LINE
  8
0
 62
     0
 10
77.8316
 20
31.5433
 30
0.0
 11
78.6324
 21
31.5433
 31
0.0
  0
LINE
  8
0
 62
     0
 10
78.6324
 20
31.5433
 30
0.0
 11
78.6324
 21
25.7431
 31
0.0
  0
LINE
  8
0
 62
     0
 10
78.6324
 20
25.7431
 30
0.0
 11
77.8316
 21
25.7431
 31
0.0
  0
LINE
  8
0
 62
     0
 10
77.8316
 20
25.7431
 30
0.0
 11
77.8316
 21
22.6439
 31
0.0
  0
LINE
  8
0
 62
     0
 10
77.8316
 20
22.6439
 30
0.0
 11
78.6324
 21
22.6439
 31
0.0
  0
LINE
  8
0
 62
     0
 10
78.6324
 20
22.6439
 30
0.0
 11
78.6324
 21
21.6435
 31
0.0
  0
LINE
  8
0
 62
     0
 10
78.6324
 20
21.6435
 30
0.0
 11
92.6331
 21
21.6435
 31
0.0
  0
LINE
  8
0
 62
     0
 10
92.6331
 20
21.6435
 30
0.0
 11
92.6331
 21
22.6439
 31
0.0
  0
LINE
  8
0
 62
     0
 10
92.6331
 20
22.6439
 30
0.0
 11
93.4325
 21
22.6439
 31
0.0
  0
LINE
  8
0
 62
     0
 10
93.4325
 20
22.6439
 30
0.0
 11
93.4325
 21
25.7431
 31
0.0
  0
LINE
  8
0
 62
     0
 10
93.4325
 20
25.7431
 30
0.0
 11
92.6331
 21
25.7431
 31
0.0
  0
LINE
  8
0
 62
     0
 10
92.6331
 20
25.7431
 30
0.0
 11
92.6331
 21
31.5433
 31
0.0
  0
LINE
  8
0
 62
     0
 10
92.6331
 20
31.5433
 30
0.0
 11
93.4325
 21
31.5433
 31
0.0
  0
LINE
  8
0
 62
     0
 10
93.4325
 20
31.5433
 30
0.0
 11
93.4325
 21
34.6439
 31
0.0
  0
LINE
  8
0
 62
     0
 10
93.4325
 20
34.6439
 30
0.0
 11
92.6331
 21
34.6439
 31
0.0
  0
LINE
  8
0
 62
     0
 10
92.6331
 20
34.6439
 30
0.0
 11
92.6331
 21
35.6429
 31
0.0
  0
LINE
  8
0
 62
     0
 10
92.6331
 20
35.6429
 30
0.0
 11
78.6324
 21
35.6429
 31
0.0
  0
LINE
  8
0
 62
     0
 10
59.581
 20
35.6429
 30
0.0
 11
59.581
 21
34.6439
 31
0.0
  0
LINE
  8
0
 62
     0
 10
59.581
 20
34.6439
 30
0.0
 11
58.7816
 21
34.6439
 31
0.0
  0
LINE
  8
0
 62
     0
 10
58.7816
 20
34.6439
 30
0.0
 11
58.7816
 21
31.5433
 31
0.0
  0
LINE
  8
0
 62
     0
 10
58.7816
 20
31.5433
 30
0.0
 11
59.581
 21
31.5433
 31
0.0
  0
LINE
  8
0
 62
     0
 10
59.581
 20
31.5433
 30
0.0
 11
59.581
 21
25.7431
 31
0.0
  0
LINE
  8
0
 62
     0
 10
59.581
 20
25.7431
 30
0.0
 11
58.7816
 21
25.7431
 31
0.0
  0
LINE
  8
0
 62
     0
 10
58.7816
 20
25.7431
 30
0.0
 11
58.7816
 21
22.6439
 31
0.0
  0
LINE
  8
0
 62
     0
 10
58.7816
 20
22.6439
 30
0.0
 11
59.581
 21
22.6439
 31
0.0
  0
LINE
  8
0
 62
     0
 10
59.581
 20
22.6439
 30
0.0
 11
59.581
 21
21.6435
 31
0.0
  0
LINE
  8
0
 62
     0
 10
59.581
 20
21.6435
 30
0.0
 11
73.5817
 21
21.6435
 31
0.0
  0
LINE
  8
0
 62
     0
 10
73.5817
 20
21.6435
 30
0.0
 11
73.5817
 21
22.6439
 31
0.0
  0
LINE
  8
0
 62
     0
 10
73.5817
 20
22.6439
 30
0.0
 11
74.3825
 21
22.6439
 31
0.0
  0
LINE
  8
0
 62
     0
 10
74.3825
 20
22.6439
 30
0.0
 11
74.3825
 21
25.7431
 31
0.0
  0
LINE
  8
0
 62
     0
 10
74.3825
 20
25.7431
 30
0.0
 11
73.5817
 21
25.7431
 31
0.0
  0
LINE
  8
0
 62
     0
 10
73.5817
 20
25.7431
 30
0.0
 11
73.5817
 21
31.5433
 31
0.0
  0
LINE
  8
0
 62
     0
 10
73.5817
 20
31.5433
 30
0.0
 11
74.3825
 21
31.5433
 31
0.0
  0
LINE
  8
0
 62
     0
 10
74.3825
 20
31.5433
 30
0.0
 11
74.3825
 21
34.6439
 31
0.0
  0
LINE
  8
0
 62
     0
 10
74.3825
 20
34.6439
 30
0.0
 11
73.5817
 21
34.6439
 31
0.0
  0
LINE
  8
0
 62
     0
 10
73.5817
 20
34.6439
 30
0.0
 11
73.5817
 21
35.6429
 31
0.0
  0
LINE
  8
0
 62
     0
 10
73.5817
 20
35.6429
 30
0.0
 11
59.581
 21
35.6429
 31
0.0
  0
LINE
  8
0
 62
     0
 10
40.531
 20
35.6429
 30
0.0
 11
40.531
 21
34.6439
 31
0.0
  0
LINE
  8
0
 62
     0
 10
40.531
 20
34.6439
 30
0.0
 11
39.7316
 21
34.6439
 31
0.0
  0
LINE
  8
0
 62
     0
 10
39.7316
 20
34.6439
 30
0.0
 11
39.7316
 21
31.5433
 31
0.0
  0
LINE
  8
0
 62
     0
 10
39.7316
 20
31.5433
 30
0.0
 11
40.531
 21
31.5433
 31
0.0
  0
LINE
  8
0
 62
     0
 10
40.531
 20
31.5433
 30
0.0
 11
40.531
 21
25.7431
 31
0.0
  0
LINE
  8
0
 62
     0
 10
40.531
 20
25.7431
 30
0.0
 11
39.7316
 21
25.7431
 31
0.0
  0
LINE
  8
0
 62
     0
 10
39.7316
 20
25.7431
 30
0.0
 11
39.7316
 21
22.6439
 31
0.0
  0
LINE
  8
0
 62
     0
 10
39.7316
 20
22.6439
 30
0.0
 11
40.531
 21
22.6439
 31
0.0
  0
LINE
  8
0
 62
     0
 10
40.531
 20
22.6439
 30
0.0
 11
40.531
 21
21.6435
 31
0.0
  0
LINE
  8
0
 62
     0
 10
40.531
 20
21.6435
 30
0.0
 11
54.5317
 21
21.6435
 31
0.0
  0
LINE
  8
0
 62
     0
 10
54.5317
 20
21.6435
 30
0.0
 11
54.5317
 21
22.6439
 31
0.0
  0
LINE
  8
0
 62
     0
 10
54.5317
 20
22.6439
 30
0.0
 11
55.3311
 21
22.6439
 31
0.0
  0
LINE
  8
0
 62
     0
 10
55.3311
 20
22.6439
 30
0.0
 11
55.3311
 21
25.7431
 31
0.0
  0
LINE
  8
0
 62
     0
 10
55.3311
 20
25.7431
 30
0.0
 11
54.5317
 21
25.7431
 31
0.0
  0
LINE
  8
0
 62
     0
 10
54.5317
 20
25.7431
 30
0.0
 11
54.5317
 21
31.5433
 31
0.0
  0
LINE
  8
0
 62
     0
 10
54.5317
 20
31.5433
 30
0.0
 11
55.3311
 21
31.5433
 31
0.0
  0
LINE
  8
0
 62
     0
 10
55.3311
 20
31.5433
 30
0.0
 11
55.3311
 21
34.6439
 31
0.0
  0
LINE
  8
0
 62
     0
 10
55.3311
 20
34.6439
 30
0.0
 11
54.5317
 21
34.6439
 31
0.0
  0
LINE
  8
0
 62
     0
 10
54.5317
 20
34.6439
 30
0.0
 11
54.5317
 21
35.6429
 31
0.0
  0
LINE
  8
0
 62
     0
 10
54.5317
 20
35.6429
 30
0.0
 11
40.531
 21
35.6429
 31
0.0
  0
LINE
  8
0
 62
     0
 10
21.4809
 20
35.6429
 30
0.0
 11
21.4809
 21
34.6439
 31
0.0
  0
LINE
  8
0
 62
     0
 10
21.4809
 20
34.6439
 30
0.0
 11
20.683
 21
34.6439
 31
0.0
  0
LINE
  8
0
 62
     0
 10
20.683
 20
34.6439
 30
0.0
 11
20.683
 21
31.5433
 31
0.0
  0
LINE
  8
0
 62
     0
 10
20.683
 20
31.5433
 30
0.0
 11
21.4809
 21
31.5433
 31
0.0
  0
LINE
  8
0
 62
     0
 10
21.4809
 20
31.5433
 30
0.0
 11
21.4809
 21
25.7431
 31
0.0
  0
LINE
  8
0
 62
     0
 10
21.4809
 20
25.7431
 30
0.0
 11
20.683
 21
25.7431
 31
0.0
  0
LINE
  8
0
 62
     0
 10
20.683
 20
25.7431
 30
0.0
 11
20.683
 21
22.6439
 31
0.0
  0
LINE
  8
0
 62
     0
 10
20.683
 20
22.6439
 30
0.0
 11
21.4809
 21
22.6439
 31
0.0
  0
LINE
  8
0
 62
     0
 10
21.4809
 20
22.6439
 30
0.0
 11
21.4809
 21
21.6435
 31
0.0
  0
LINE
  8
0
 62
     0
 10
21.4809
 20
21.6435
 30
0.0
 11
35.4817
 21
21.6435
 31
0.0
  0
LINE
  8
0
 62
     0
 10
35.4817
 20
21.6435
 30
0.0
 11
35.4817
 21
22.6439
 31
0.0
  0
LINE
  8
0
 62
     0
 10
35.4817
 20
22.6439
 30
0.0
 11
36.2811
 21
22.6439
 31
0.0
  0
LINE
  8
0
 62
     0
 10
36.2811
 20
22.6439
 30
0.0
 11
36.2811
 21
25.7431
 31
0.0
  0
LINE
  8
0
 62
     0
 10
36.2811
 20
25.7431
 30
0.0
 11
35.4817
 21
25.7431
 31
0.0
  0
LINE
  8
0
 62
     0
 10
35.4817
 20
25.7431
 30
0.0
 11
35.4817
 21
31.5433
 31
0.0
  0
LINE
  8
0
 62
     0
 10
35.4817
 20
31.5433
 30
0.0
 11
36.2811
 21
31.5433
 31
0.0
  0
LINE
  8
0
 62
     0
 10
36.2811
 20
31.5433
 30
0.0
 11
36.2811
 21
34.6439
 31
0.0
  0
LINE
  8
0
 62
     0
 10
36.2811
 20
34.6439
 30
0.0
 11
35.4817
 21
34.6439
 31
0.0
  0
LINE
  8
0
 62
     0
 10
35.4817
 20
34.6439
 30
0.0
 11
35.4817
 21
35.6429
 31
0.0
  0
LINE
  8
0
 62
     0
 10
35.4817
 20
35.6429
 30
0.0
 11
21.4809
 21
35.6429
 31
0.0
  0
LINE
  8
0
 62
     0
 10
2.43086
 20
35.6429
 30
0.0
 11
2.43086
 21
34.6439
 31
0.0
  0
LINE
  8
0
 62
     0
 10
2.43086
 20
34.6439
 30
0.0
 11
1.6316
 21
34.6439
 31
0.0
  0
LINE
  8
0
 62
     0
 10
1.6316
 20
34.6439
 30
0.0
 11
1.6316
 21
31.5433
 31
0.0
  0
LINE
  8
0
 62
     0
 10
1.6316
 20
31.5433
 30
0.0
 11
2.43086
 21
31.5433
 31
0.0
  0
LINE
  8
0
 62
     0
 10
2.43086
 20
31.5433
 30
0.0
 11
2.43086
 21
25.7431
 31
0.0
  0
LINE
  8
0
 62
     0
 10
2.43086
 20
25.7431
 30
0.0
 11
1.6316
 21
25.7431
 31
0.0
  0
LINE
  8
0
 62
     0
 10
1.6316
 20
25.7431
 30
0.0
 11
1.6316
 21
22.6439
 31
0.0
  0
LINE
  8
0
 62
     0
 10
1.6316
 20
22.6439
 30
0.0
 11
2.43086
 21
22.6439
 31
0.0
  0
LINE
  8
0
 62
     0
 10
2.43086
 20
22.6439
 30
0.0
 11
2.43086
 21
21.6435
 31
0.0
  0
LINE
  8
0
 62
     0
 10
2.43086
 20
21.6435
 30
0.0
 11
16.4331
 21
21.6435
 31
0.0
  0
LINE
  8
0
 62
     0
 10
16.4331
 20
21.6435
 30
0.0
 11
16.4331
 21
22.6439
 31
0.0
  0
LINE
  8
0
 62
     0
 10
16.4331
 20
22.6439
 30
0.0
 11
17.231
 21
22.6439
 31
0.0
  0
LINE
  8
0
 62
     0
 10
17.231
 20
22.6439
 30
0.0
 11
17.231
 21
25.7431
 31
0.0
  0
LINE
  8
0
 62
     0
 10
17.231
 20
25.7431
 30
0.0
 11
16.4331
 21
25.7431
 31
0.0
  0
LINE
  8
0
 62
     0
 10
16.4331
 20
25.7431
 30
0.0
 11
16.4331
 21
31.5433
 31
0.0
  0
LINE
  8
0
 62
     0
 10
16.4331
 20
31.5433
 30
0.0
 11
17.231
 21
31.5433
 31
0.0
  0
LINE
  8
0
 62
     0
 10
17.231
 20
31.5433
 30
0.0
 11
17.231
 21
34.6439
 31
0.0
  0
LINE
  8
0
 62
     0
 10
17.231
 20
34.6439
 30
0.0
 11
16.4331
 21
34.6439
 31
0.0
  0
LINE
  8
0
 62
     0
 10
16.4331
 20
34.6439
 30
0.0
 11
16.4331
 21
35.6429
 31
0.0
  0
LINE
  8
0
 62
     0
 10
16.4331
 20
35.6429
 30
0.0
 11
2.43086
 21
35.6429
 31
0.0
  0
LINE
  8
0
 62
     0
 10
250.081
 20
54.6929
 30
0.0
 11
250.081
 21
53.6924
 31
0.0
  0
LINE
  8
0
 62
     0
 10
250.081
 20
53.6924
 30
0.0
 11
249.283
 21
53.6924
 31
0.0
  0
LINE
  8
0
 62
     0
 10
249.283
 20
53.6924
 30
0.0
 11
249.283
 21
50.5933
 31
0.0
  0
LINE
  8
0
 62
     0
 10
249.283
 20
50.5933
 30
0.0
 11
250.081
 21
50.5933
 31
0.0
  0
LINE
  8
0
 62
     0
 10
250.081
 20
50.5933
 30
0.0
 11
250.081
 21
44.7933
 31
0.0
  0
LINE
  8
0
 62
     0
 10
250.081
 20
44.7933
 30
0.0
 11
249.283
 21
44.7933
 31
0.0
  0
LINE
  8
0
 62
     0
 10
249.283
 20
44.7933
 30
0.0
 11
249.283
 21
41.6927
 31
0.0
  0
LINE
  8
0
 62
     0
 10
249.283
 20
41.6927
 30
0.0
 11
250.081
 21
41.6927
 31
0.0
  0
LINE
  8
0
 62
     0
 10
250.081
 20
41.6927
 30
0.0
 11
250.081
 21
40.6922
 31
0.0
  0
LINE
  8
0
 62
     0
 10
250.081
 20
40.6922
 30
0.0
 11
264.082
 21
40.6922
 31
0.0
  0
LINE
  8
0
 62
     0
 10
264.082
 20
40.6922
 30
0.0
 11
264.082
 21
41.6927
 31
0.0
  0
LINE
  8
0
 62
     0
 10
264.082
 20
41.6927
 30
0.0
 11
264.881
 21
41.6927
 31
0.0
  0
LINE
  8
0
 62
     0
 10
264.881
 20
41.6927
 30
0.0
 11
264.881
 21
44.7933
 31
0.0
  0
LINE
  8
0
 62
     0
 10
264.881
 20
44.7933
 30
0.0
 11
264.082
 21
44.7933
 31
0.0
  0
LINE
  8
0
 62
     0
 10
264.082
 20
44.7933
 30
0.0
 11
264.082
 21
50.5933
 31
0.0
  0
LINE
  8
0
 62
     0
 10
264.082
 20
50.5933
 30
0.0
 11
264.881
 21
50.5933
 31
0.0
  0
LINE
  8
0
 62
     0
 10
264.881
 20
50.5933
 30
0.0
 11
264.881
 21
53.6924
 31
0.0
  0
LINE
  8
0
 62
     0
 10
264.881
 20
53.6924
 30
0.0
 11
264.082
 21
53.6924
 31
0.0
  0
LINE
  8
0
 62
     0
 10
264.082
 20
53.6924
 30
0.0
 11
264.082
 21
54.6929
 31
0.0
  0
LINE
  8
0
 62
     0
 10
264.082
 20
54.6929
 30
0.0
 11
250.081
 21
54.6929
 31
0.0
  0
LINE
  8
0
 62
     0
 10
231.032
 20
54.6929
 30
0.0
 11
231.032
 21
53.6924
 31
0.0
  0
LINE
  8
0
 62
     0
 10
231.032
 20
53.6924
 30
0.0
 11
230.233
 21
53.6924
 31
0.0
  0
LINE
  8
0
 62
     0
 10
230.233
 20
53.6924
 30
0.0
 11
230.233
 21
50.5933
 31
0.0
  0
LINE
  8
0
 62
     0
 10
230.233
 20
50.5933
 30
0.0
 11
231.032
 21
50.5933
 31
0.0
  0
LINE
  8
0
 62
     0
 10
231.032
 20
50.5933
 30
0.0
 11
231.032
 21
44.7933
 31
0.0
  0
LINE
  8
0
 62
     0
 10
231.032
 20
44.7933
 30
0.0
 11
230.233
 21
44.7933
 31
0.0
  0
LINE
  8
0
 62
     0
 10
230.233
 20
44.7933
 30
0.0
 11
230.233
 21
41.6927
 31
0.0
  0
LINE
  8
0
 62
     0
 10
230.233
 20
41.6927
 30
0.0
 11
231.032
 21
41.6927
 31
0.0
  0
LINE
  8
0
 62
     0
 10
231.032
 20
41.6927
 30
0.0
 11
231.032
 21
40.6922
 31
0.0
  0
LINE
  8
0
 62
     0
 10
231.032
 20
40.6922
 30
0.0
 11
245.033
 21
40.6922
 31
0.0
  0
LINE
  8
0
 62
     0
 10
245.033
 20
40.6922
 30
0.0
 11
245.033
 21
41.6927
 31
0.0
  0
LINE
  8
0
 62
     0
 10
245.033
 20
41.6927
 30
0.0
 11
245.831
 21
41.6927
 31
0.0
  0
LINE
  8
0
 62
     0
 10
245.831
 20
41.6927
 30
0.0
 11
245.831
 21
44.7933
 31
0.0
  0
LINE
  8
0
 62
     0
 10
245.831
 20
44.7933
 30
0.0
 11
245.033
 21
44.7933
 31
0.0
  0
LINE
  8
0
 62
     0
 10
245.033
 20
44.7933
 30
0.0
 11
245.033
 21
50.5933
 31
0.0
  0
LINE
  8
0
 62
     0
 10
245.033
 20
50.5933
 30
0.0
 11
245.831
 21
50.5933
 31
0.0
  0
LINE
  8
0
 62
     0
 10
245.831
 20
50.5933
 30
0.0
 11
245.831
 21
53.6924
 31
0.0
  0
LINE
  8
0
 62
     0
 10
245.831
 20
53.6924
 30
0.0
 11
245.033
 21
53.6924
 31
0.0
  0
LINE
  8
0
 62
     0
 10
245.033
 20
53.6924
 30
0.0
 11
245.033
 21
54.6929
 31
0.0
  0
LINE
  8
0
 62
     0
 10
245.033
 20
54.6929
 30
0.0
 11
231.032
 21
54.6929
 31
0.0
  0
LINE
  8
0
 62
     0
 10
211.982
 20
54.6929
 30
0.0
 11
211.982
 21
53.6924
 31
0.0
  0
LINE
  8
0
 62
     0
 10
211.982
 20
53.6924
 30
0.0
 11
211.182
 21
53.6924
 31
0.0
  0
LINE
  8
0
 62
     0
 10
211.182
 20
53.6924
 30
0.0
 11
211.182
 21
50.5933
 31
0.0
  0
LINE
  8
0
 62
     0
 10
211.182
 20
50.5933
 30
0.0
 11
211.982
 21
50.5933
 31
0.0
  0
LINE
  8
0
 62
     0
 10
211.982
 20
50.5933
 30
0.0
 11
211.982
 21
44.7933
 31
0.0
  0
LINE
  8
0
 62
     0
 10
211.982
 20
44.7933
 30
0.0
 11
211.182
 21
44.7933
 31
0.0
  0
LINE
  8
0
 62
     0
 10
211.182
 20
44.7933
 30
0.0
 11
211.182
 21
41.6927
 31
0.0
  0
LINE
  8
0
 62
     0
 10
211.182
 20
41.6927
 30
0.0
 11
211.982
 21
41.6927
 31
0.0
  0
LINE
  8
0
 62
     0
 10
211.982
 20
41.6927
 30
0.0
 11
211.982
 21
40.6922
 31
0.0
  0
LINE
  8
0
 62
     0
 10
211.982
 20
40.6922
 30
0.0
 11
225.983
 21
40.6922
 31
0.0
  0
LINE
  8
0
 62
     0
 10
225.983
 20
40.6922
 30
0.0
 11
225.983
 21
41.6927
 31
0.0
  0
LINE
  8
0
 62
     0
 10
225.983
 20
41.6927
 30
0.0
 11
226.782
 21
41.6927
 31
0.0
  0
LINE
  8
0
 62
     0
 10
226.782
 20
41.6927
 30
0.0
 11
226.782
 21
44.7933
 31
0.0
  0
LINE
  8
0
 62
     0
 10
226.782
 20
44.7933
 30
0.0
 11
225.983
 21
44.7933
 31
0.0
  0
LINE
  8
0
 62
     0
 10
225.983
 20
44.7933
 30
0.0
 11
225.983
 21
50.5933
 31
0.0
  0
LINE
  8
0
 62
     0
 10
225.983
 20
50.5933
 30
0.0
 11
226.782
 21
50.5933
 31
0.0
  0
LINE
  8
0
 62
     0
 10
226.782
 20
50.5933
 30
0.0
 11
226.782
 21
53.6924
 31
0.0
  0
LINE
  8
0
 62
     0
 10
226.782
 20
53.6924
 30
0.0
 11
225.983
 21
53.6924
 31
0.0
  0
LINE
  8
0
 62
     0
 10
225.983
 20
53.6924
 30
0.0
 11
225.983
 21
54.6929
 31
0.0
  0
LINE
  8
0
 62
     0
 10
225.983
 20
54.6929
 30
0.0
 11
211.982
 21
54.6929
 31
0.0
  0
LINE
  8
0
 62
     0
 10
192.931
 20
54.6929
 30
0.0
 11
192.931
 21
53.6924
 31
0.0
  0
LINE
  8
0
 62
     0
 10
192.931
 20
53.6924
 30
0.0
 11
192.133
 21
53.6924
 31
0.0
  0
LINE
  8
0
 62
     0
 10
192.133
 20
53.6924
 30
0.0
 11
192.133
 21
50.5933
 31
0.0
  0
LINE
  8
0
 62
     0
 10
192.133
 20
50.5933
 30
0.0
 11
192.931
 21
50.5933
 31
0.0
  0
LINE
  8
0
 62
     0
 10
192.931
 20
50.5933
 30
0.0
 11
192.931
 21
44.7933
 31
0.0
  0
LINE
  8
0
 62
     0
 10
192.931
 20
44.7933
 30
0.0
 11
192.133
 21
44.7933
 31
0.0
  0
LINE
  8
0
 62
     0
 10
192.133
 20
44.7933
 30
0.0
 11
192.133
 21
41.6927
 31
0.0
  0
LINE
  8
0
 62
     0
 10
192.133
 20
41.6927
 30
0.0
 11
192.931
 21
41.6927
 31
0.0
  0
LINE
  8
0
 62
     0
 10
192.931
 20
41.6927
 30
0.0
 11
192.931
 21
40.6922
 31
0.0
  0
LINE
  8
0
 62
     0
 10
192.931
 20
40.6922
 30
0.0
 11
206.932
 21
40.6922
 31
0.0
  0
LINE
  8
0
 62
     0
 10
206.932
 20
40.6922
 30
0.0
 11
206.932
 21
41.6927
 31
0.0
  0
LINE
  8
0
 62
     0
 10
206.932
 20
41.6927
 30
0.0
 11
207.732
 21
41.6927
 31
0.0
  0
LINE
  8
0
 62
     0
 10
207.732
 20
41.6927
 30
0.0
 11
207.732
 21
44.7933
 31
0.0
  0
LINE
  8
0
 62
     0
 10
207.732
 20
44.7933
 30
0.0
 11
206.932
 21
44.7933
 31
0.0
  0
LINE
  8
0
 62
     0
 10
206.932
 20
44.7933
 30
0.0
 11
206.932
 21
50.5933
 31
0.0
  0
LINE
  8
0
 62
     0
 10
206.932
 20
50.5933
 30
0.0
 11
207.732
 21
50.5933
 31
0.0
  0
LINE
  8
0
 62
     0
 10
207.732
 20
50.5933
 30
0.0
 11
207.732
 21
53.6924
 31
0.0
  0
LINE
  8
0
 62
     0
 10
207.732
 20
53.6924
 30
0.0
 11
206.932
 21
53.6924
 31
0.0
  0
LINE
  8
0
 62
     0
 10
206.932
 20
53.6924
 30
0.0
 11
206.932
 21
54.6929
 31
0.0
  0
LINE
  8
0
 62
     0
 10
206.932
 20
54.6929
 30
0.0
 11
192.931
 21
54.6929
 31
0.0
  0
LINE
  8
0
 62
     0
 10
173.882
 20
54.6929
 30
0.0
 11
173.882
 21
53.6924
 31
0.0
  0
LINE
  8
0
 62
     0
 10
173.882
 20
53.6924
 30
0.0
 11
173.082
 21
53.6924
 31
0.0
  0
LINE
  8
0
 62
     0
 10
173.082
 20
53.6924
 30
0.0
 11
173.082
 21
50.5933
 31
0.0
  0
LINE
  8
0
 62
     0
 10
173.082
 20
50.5933
 30
0.0
 11
173.882
 21
50.5933
 31
0.0
  0
LINE
  8
0
 62
     0
 10
173.882
 20
50.5933
 30
0.0
 11
173.882
 21
44.7933
 31
0.0
  0
LINE
  8
0
 62
     0
 10
173.882
 20
44.7933
 30
0.0
 11
173.082
 21
44.7933
 31
0.0
  0
LINE
  8
0
 62
     0
 10
173.082
 20
44.7933
 30
0.0
 11
173.082
 21
41.6927
 31
0.0
  0
LINE
  8
0
 62
     0
 10
173.082
 20
41.6927
 30
0.0
 11
173.882
 21
41.6927
 31
0.0
  0
LINE
  8
0
 62
     0
 10
173.882
 20
41.6927
 30
0.0
 11
173.882
 21
40.6922
 31
0.0
  0
LINE
  8
0
 62
     0
 10
173.882
 20
40.6922
 30
0.0
 11
187.883
 21
40.6922
 31
0.0
  0
LINE
  8
0
 62
     0
 10
187.883
 20
40.6922
 30
0.0
 11
187.883
 21
41.6927
 31
0.0
  0
LINE
  8
0
 62
     0
 10
187.883
 20
41.6927
 30
0.0
 11
188.681
 21
41.6927
 31
0.0
  0
LINE
  8
0
 62
     0
 10
188.681
 20
41.6927
 30
0.0
 11
188.681
 21
44.7933
 31
0.0
  0
LINE
  8
0
 62
     0
 10
188.681
 20
44.7933
 30
0.0
 11
187.883
 21
44.7933
 31
0.0
  0
LINE
  8
0
 62
     0
 10
187.883
 20
44.7933
 30
0.0
 11
187.883
 21
50.5933
 31
0.0
  0
LINE
  8
0
 62
     0
 10
187.883
 20
50.5933
 30
0.0
 11
188.681
 21
50.5933
 31
0.0
  0
LINE
  8
0
 62
     0
 10
188.681
 20
50.5933
 30
0.0
 11
188.681
 21
53.6924
 31
0.0
  0
LINE
  8
0
 62
     0
 10
188.681
 20
53.6924
 30
0.0
 11
187.883
 21
53.6924
 31
0.0
  0
LINE
  8
0
 62
     0
 10
187.883
 20
53.6924
 30
0.0
 11
187.883
 21
54.6929
 31
0.0
  0
LINE
  8
0
 62
     0
 10
187.883
 20
54.6929
 30
0.0
 11
173.882
 21
54.6929
 31
0.0
  0
LINE
  8
0
 62
     0
 10
97.6824
 20
54.6929
 30
0.0
 11
97.6824
 21
53.6924
 31
0.0
  0
LINE
  8
0
 62
     0
 10
97.6824
 20
53.6924
 30
0.0
 11
96.883
 21
53.6924
 31
0.0
  0
LINE
  8
0
 62
     0
 10
96.883
 20
53.6924
 30
0.0
 11
96.883
 21
50.5933
 31
0.0
  0
LINE
  8
0
 62
     0
 10
96.883
 20
50.5933
 30
0.0
 11
97.6824
 21
50.5933
 31
0.0
  0
LINE
  8
0
 62
     0
 10
97.6824
 20
50.5933
 30
0.0
 11
97.6824
 21
44.7933
 31
0.0
  0
LINE
  8
0
 62
     0
 10
97.6824
 20
44.7933
 30
0.0
 11
96.883
 21
44.7933
 31
0.0
  0
LINE
  8
0
 62
     0
 10
96.883
 20
44.7933
 30
0.0
 11
96.883
 21
41.6927
 31
0.0
  0
LINE
  8
0
 62
     0
 10
96.883
 20
41.6927
 30
0.0
 11
97.6824
 21
41.6927
 31
0.0
  0
LINE
  8
0
 62
     0
 10
97.6824
 20
41.6927
 30
0.0
 11
97.6824
 21
40.6922
 31
0.0
  0
LINE
  8
0
 62
     0
 10
97.6824
 20
40.6922
 30
0.0
 11
111.683
 21
40.6922
 31
0.0
  0
LINE
  8
0
 62
     0
 10
111.683
 20
40.6922
 30
0.0
 11
111.683
 21
41.6927
 31
0.0
  0
LINE
  8
0
 62
     0
 10
111.683
 20
41.6927
 30
0.0
 11
112.482
 21
41.6927
 31
0.0
  0
LINE
  8
0
 62
     0
 10
112.482
 20
41.6927
 30
0.0
 11
112.482
 21
44.7933
 31
0.0
  0
LINE
  8
0
 62
     0
 10
112.482
 20
44.7933
 30
0.0
 11
111.683
 21
44.7933
 31
0.0
  0
LINE
  8
0
 62
     0
 10
111.683
 20
44.7933
 30
0.0
 11
111.683
 21
50.5933
 31
0.0
  0
LINE
  8
0
 62
     0
 10
111.683
 20
50.5933
 30
0.0
 11
112.482
 21
50.5933
 31
0.0
  0
LINE
  8
0
 62
     0
 10
112.482
 20
50.5933
 30
0.0
 11
112.482
 21
53.6924
 31
0.0
  0
LINE
  8
0
 62
     0
 10
112.482
 20
53.6924
 30
0.0
 11
111.683
 21
53.6924
 31
0.0
  0
LINE
  8
0
 62
     0
 10
111.683
 20
53.6924
 30
0.0
 11
111.683
 21
54.6929
 31
0.0
  0
LINE
  8
0
 62
     0
 10
111.683
 20
54.6929
 30
0.0
 11
97.6824
 21
54.6929
 31
0.0
  0
LINE
  8
0
 62
     0
 10
78.6324
 20
54.6929
 30
0.0
 11
78.6324
 21
53.6924
 31
0.0
  0
LINE
  8
0
 62
     0
 10
78.6324
 20
53.6924
 30
0.0
 11
77.8316
 21
53.6924
 31
0.0
  0
LINE
  8
0
 62
     0
 10
77.8316
 20
53.6924
 30
0.0
 11
77.8316
 21
50.5933
 31
0.0
  0
LINE
  8
0
 62
     0
 10
77.8316
 20
50.5933
 30
0.0
 11
78.6324
 21
50.5933
 31
0.0
  0
LINE
  8
0
 62
     0
 10
78.6324
 20
50.5933
 30
0.0
 11
78.6324
 21
44.7933
 31
0.0
  0
LINE
  8
0
 62
     0
 10
78.6324
 20
44.7933
 30
0.0
 11
77.8316
 21
44.7933
 31
0.0
  0
LINE
  8
0
 62
     0
 10
77.8316
 20
44.7933
 30
0.0
 11
77.8316
 21
41.6927
 31
0.0
  0
LINE
  8
0
 62
     0
 10
77.8316
 20
41.6927
 30
0.0
 11
78.6324
 21
41.6927
 31
0.0
  0
LINE
  8
0
 62
     0
 10
78.6324
 20
41.6927
 30
0.0
 11
78.6324
 21
40.6922
 31
0.0
  0
LINE
  8
0
 62
     0
 10
78.6324
 20
40.6922
 30
0.0
 11
92.6331
 21
40.6922
 31
0.0
  0
LINE
  8
0
 62
     0
 10
92.6331
 20
40.6922
 30
0.0
 11
92.6331
 21
41.6927
 31
0.0
  0
LINE
  8
0
 62
     0
 10
92.6331
 20
41.6927
 30
0.0
 11
93.4325
 21
41.6927
 31
0.0
  0
LINE
  8
0
 62
     0
 10
93.4325
 20
41.6927
 30
0.0
 11
93.4325
 21
44.7933
 31
0.0
  0
LINE
  8
0
 62
     0
 10
93.4325
 20
44.7933
 30
0.0
 11
92.6331
 21
44.7933
 31
0.0
  0
LINE
  8
0
 62
     0
 10
92.6331
 20
44.7933
 30
0.0
 11
92.6331
 21
50.5933
 31
0.0
  0
LINE
  8
0
 62
     0
 10
92.6331
 20
50.5933
 30
0.0
 11
93.4325
 21
50.5933
 31
0.0
  0
LINE
  8
0
 62
     0
 10
93.4325
 20
50.5933
 30
0.0
 11
93.4325
 21
53.6924
 31
0.0
  0
LINE
  8
0
 62
     0
 10
93.4325
 20
53.6924
 30
0.0
 11
92.6331
 21
53.6924
 31
0.0
  0
LINE
  8
0
 62
     0
 10
92.6331
 20
53.6924
 30
0.0
 11
92.6331
 21
54.6929
 31
0.0
  0
LINE
  8
0
 62
     0
 10
92.6331
 20
54.6929
 30
0.0
 11
78.6324
 21
54.6929
 31
0.0
  0
LINE
  8
0
 62
     0
 10
59.581
 20
54.6929
 30
0.0
 11
59.581
 21
53.6924
 31
0.0
  0
LINE
  8
0
 62
     0
 10
59.581
 20
53.6924
 30
0.0
 11
58.7816
 21
53.6924
 31
0.0
  0
LINE
  8
0
 62
     0
 10
58.7816
 20
53.6924
 30
0.0
 11
58.7816
 21
50.5933
 31
0.0
  0
LINE
  8
0
 62
     0
 10
58.7816
 20
50.5933
 30
0.0
 11
59.581
 21
50.5933
 31
0.0
  0
LINE
  8
0
 62
     0
 10
59.581
 20
50.5933
 30
0.0
 11
59.581
 21
44.7933
 31
0.0
  0
LINE
  8
0
 62
     0
 10
59.581
 20
44.7933
 30
0.0
 11
58.7816
 21
44.7933
 31
0.0
  0
LINE
  8
0
 62
     0
 10
58.7816
 20
44.7933
 30
0.0
 11
58.7816
 21
41.6927
 31
0.0
  0
LINE
  8
0
 62
     0
 10
58.7816
 20
41.6927
 30
0.0
 11
59.581
 21
41.6927
 31
0.0
  0
LINE
  8
0
 62
     0
 10
59.581
 20
41.6927
 30
0.0
 11
59.581
 21
40.6922
 31
0.0
  0
LINE
  8
0
 62
     0
 10
59.581
 20
40.6922
 30
0.0
 11
73.5817
 21
40.6922
 31
0.0
  0
LINE
  8
0
 62
     0
 10
73.5817
 20
40.6922
 30
0.0
 11
73.5817
 21
41.6927
 31
0.0
  0
LINE
  8
0
 62
     0
 10
73.5817
 20
41.6927
 30
0.0
 11
74.3825
 21
41.6927
 31
0.0
  0
LINE
  8
0
 62
     0
 10
74.3825
 20
41.6927
 30
0.0
 11
74.3825
 21
44.7933
 31
0.0
  0
LINE
  8
0
 62
     0
 10
74.3825
 20
44.7933
 30
0.0
 11
73.5817
 21
44.7933
 31
0.0
  0
LINE
  8
0
 62
     0
 10
73.5817
 20
44.7933
 30
0.0
 11
73.5817
 21
50.5933
 31
0.0
  0
LINE
  8
0
 62
     0
 10
73.5817
 20
50.5933
 30
0.0
 11
74.3825
 21
50.5933
 31
0.0
  0
LINE
  8
0
 62
     0
 10
74.3825
 20
50.5933
 30
0.0
 11
74.3825
 21
53.6924
 31
0.0
  0
LINE
  8
0
 62
     0
 10
74.3825
 20
53.6924
 30
0.0
 11
73.5817
 21
53.6924
 31
0.0
  0
LINE
  8
0
 62
     0
 10
73.5817
 20
53.6924
 30
0.0
 11
73.5817
 21
54.6929
 31
0.0
  0
LINE
  8
0
 62
     0
 10
73.5817
 20
54.6929
 30
0.0
 11
59.581
 21
54.6929
 31
0.0
  0
LINE
  8
0
 62
     0
 10
40.531
 20
54.6929
 30
0.0
 11
40.531
 21
53.6924
 31
0.0
  0
LINE
  8
0
 62
     0
 10
40.531
 20
53.6924
 30
0.0
 11
39.7316
 21
53.6924
 31
0.0
  0
LINE
  8
0
 62
     0
 10
39.7316
 20
53.6924
 30
0.0
 11
39.7316
 21
50.5933
 31
0.0
  0
LINE
  8
0
 62
     0
 10
39.7316
 20
50.5933
 30
0.0
 11
40.531
 21
50.5933
 31
0.0
  0
LINE
  8
0
 62
     0
 10
40.531
 20
50.5933
 30
0.0
 11
40.531
 21
44.7933
 31
0.0
  0
LINE
  8
0
 62
     0
 10
40.531
 20
44.7933
 30
0.0
 11
39.7316
 21
44.7933
 31
0.0
  0
LINE
  8
0
 62
     0
 10
39.7316
 20
44.7933
 30
0.0
 11
39.7316
 21
41.6927
 31
0.0
  0
LINE
  8
0
 62
     0
 10
39.7316
 20
41.6927
 30
0.0
 11
40.531
 21
41.6927
 31
0.0
  0
LINE
  8
0
 62
     0
 10
40.531
 20
41.6927
 30
0.0
 11
40.531
 21
40.6922
 31
0.0
  0
LINE
  8
0
 62
     0
 10
40.531
 20
40.6922
 30
0.0
 11
54.5317
 21
40.6922
 31
0.0
  0
LINE
  8
0
 62
     0
 10
54.5317
 20
40.6922
 30
0.0
 11
54.5317
 21
41.6927
 31
0.0
  0
LINE
  8
0
 62
     0
 10
54.5317
 20
41.6927
 30
0.0
 11
55.3311
 21
41.6927
 31
0.0
  0
LINE
  8
0
 62
     0
 10
55.3311
 20
41.6927
 30
0.0
 11
55.3311
 21
44.7933
 31
0.0
  0
LINE
  8
0
 62
     0
 10
55.3311
 20
44.7933
 30
0.0
 11
54.5317
 21
44.7933
 31
0.0
  0
LINE
  8
0
 62
     0
 10
54.5317
 20
44.7933
 30
0.0
 11
54.5317
 21
50.5933
 31
0.0
  0
LINE
  8
0
 62
     0
 10
54.5317
 20
50.5933
 30
0.0
 11
55.3311
 21
50.5933
 31
0.0
  0
LINE
  8
0
 62
     0
 10
55.3311
 20
50.5933
 30
0.0
 11
55.3311
 21
53.6924
 31
0.0
  0
LINE
  8
0
 62
     0
 10
55.3311
 20
53.6924
 30
0.0
 11
54.5317
 21
53.6924
 31
0.0
  0
LINE
  8
0
 62
     0
 10
54.5317
 20
53.6924
 30
0.0
 11
54.5317
 21
54.6929
 31
0.0
  0
LINE
  8
0
 62
     0
 10
54.5317
 20
54.6929
 30
0.0
 11
40.531
 21
54.6929
 31
0.0
  0
LINE
  8
0
 62
     0
 10
21.4809
 20
54.6929
 30
0.0
 11
21.4809
 21
53.6924
 31
0.0
  0
LINE
  8
0
 62
     0
 10
21.4809
 20
53.6924
 30
0.0
 11
20.683
 21
53.6924
 31
0.0
  0
LINE
  8
0
 62
     0
 10
20.683
 20
53.6924
 30
0.0
 11
20.683
 21
50.5933
 31
0.0
  0
LINE
  8
0
 62
     0
 10
20.683
 20
50.5933
 30
0.0
 11
21.4809
 21
50.5933
 31
0.0
  0
LINE
  8
0
 62
     0
 10
21.4809
 20
50.5933
 30
0.0
 11
21.4809
 21
44.7933
 31
0.0
  0
LINE
  8
0
 62
     0
 10
21.4809
 20
44.7933
 30
0.0
 11
20.683
 21
44.7933
 31
0.0
  0
LINE
  8
0
 62
     0
 10
20.683
 20
44.7933
 30
0.0
 11
20.683
 21
41.6927
 31
0.0
  0
LINE
  8
0
 62
     0
 10
20.683
 20
41.6927
 30
0.0
 11
21.4809
 21
41.6927
 31
0.0
  0
LINE
  8
0
 62
     0
 10
21.4809
 20
41.6927
 30
0.0
 11
21.4809
 21
40.6922
 31
0.0
  0
LINE
  8
0
 62
     0
 10
21.4809
 20
40.6922
 30
0.0
 11
35.4817
 21
40.6922
 31
0.0
  0
LINE
  8
0
 62
     0
 10
35.4817
 20
40.6922
 30
0.0
 11
35.4817
 21
41.6927
 31
0.0
  0
LINE
  8
0
 62
     0
 10
35.4817
 20
41.6927
 30
0.0
 11
36.2811
 21
41.6927
 31
0.0
  0
LINE
  8
0
 62
     0
 10
36.2811
 20
41.6927
 30
0.0
 11
36.2811
 21
44.7933
 31
0.0
  0
LINE
  8
0
 62
     0
 10
36.2811
 20
44.7933
 30
0.0
 11
35.4817
 21
44.7933
 31
0.0
  0
LINE
  8
0
 62
     0
 10
35.4817
 20
44.7933
 30
0.0
 11
35.4817
 21
50.5933
 31
0.0
  0
LINE
  8
0
 62
     0
 10
35.4817
 20
50.5933
 30
0.0
 11
36.2811
 21
50.5933
 31
0.0
  0
LINE
  8
0
 62
     0
 10
36.2811
 20
50.5933
 30
0.0
 11
36.2811
 21
53.6924
 31
0.0
  0
LINE
  8
0
 62
     0
 10
36.2811
 20
53.6924
 30
0.0
 11
35.4817
 21
53.6924
 31
0.0
  0
LINE
  8
0
 62
     0
 10
35.4817
 20
53.6924
 30
0.0
 11
35.4817
 21
54.6929
 31
0.0
  0
LINE
  8
0
 62
     0
 10
35.4817
 20
54.6929
 30
0.0
 11
21.4809
 21
54.6929
 31
0.0
  0
LINE
  8
0
 62
     0
 10
127.711
 20
50.0712
 30
0.0
 11
127.014
 21
49.7156
 31
0.0
  0
LINE
  8
0
 62
     0
 10
127.014
 20
49.7156
 30
0.0
 11
126.46
 21
49.1613
 31
0.0
  0
LINE
  8
0
 62
     0
 10
126.46
 20
49.1613
 30
0.0
 11
126.103
 21
48.4657
 31
0.0
  0
LINE
  8
0
 62
     0
 10
126.103
 20
48.4657
 30
0.0
 11
125.983
 21
47.6913
 31
0.0
  0
LINE
  8
0
 62
     0
 10
125.983
 20
47.6913
 30
0.0
 11
126.103
 21
46.9209
 31
0.0
  0
LINE
  8
0
 62
     0
 10
126.103
 20
46.9209
 30
0.0
 11
126.46
 21
46.222
 31
0.0
  0
LINE
  8
0
 62
     0
 10
126.46
 20
46.222
 30
0.0
 11
127.014
 21
45.671
 31
0.0
  0
LINE
  8
0
 62
     0
 10
127.014
 20
45.671
 30
0.0
 11
127.711
 21
45.314
 31
0.0
  0
LINE
  8
0
 62
     0
 10
127.711
 20
45.314
 30
0.0
 11
128.484
 21
45.1915
 31
0.0
  0
LINE
  8
0
 62
     0
 10
128.484
 20
45.1915
 30
0.0
 11
129.256
 21
45.314
 31
0.0
  0
LINE
  8
0
 62
     0
 10
129.256
 20
45.314
 30
0.0
 11
129.953
 21
45.671
 31
0.0
  0
LINE
  8
0
 62
     0
 10
129.953
 20
45.671
 30
0.0
 11
130.506
 21
46.222
 31
0.0
  0
LINE
  8
0
 62
     0
 10
130.506
 20
46.222
 30
0.0
 11
130.86
 21
46.9209
 31
0.0
  0
LINE
  8
0
 62
     0
 10
130.86
 20
46.9209
 30
0.0
 11
130.984
 21
47.6913
 31
0.0
  0
LINE
  8
0
 62
     0
 10
130.984
 20
47.6913
 30
0.0
 11
130.86
 21
48.4657
 31
0.0
  0
LINE
  8
0
 62
     0
 10
130.86
 20
48.4657
 30
0.0
 11
130.506
 21
49.1613
 31
0.0
  0
LINE
  8
0
 62
     0
 10
130.506
 20
49.1613
 30
0.0
 11
129.953
 21
49.7156
 31
0.0
  0
LINE
  8
0
 62
     0
 10
129.953
 20
49.7156
 30
0.0
 11
129.256
 21
50.0712
 31
0.0
  0
LINE
  8
0
 62
     0
 10
129.256
 20
50.0712
 30
0.0
 11
128.484
 21
50.1908
 31
0.0
  0
LINE
  8
0
 62
     0
 10
128.484
 20
50.1908
 30
0.0
 11
127.711
 21
50.0712
 31
0.0
  0
LINE
  8
0
 62
     0
 10
269.131
 20
73.7429
 30
0.0
 11
269.131
 21
72.7438
 31
0.0
  0
LINE
  8
0
 62
     0
 10
269.131
 20
72.7438
 30
0.0
 11
268.332
 21
72.7438
 31
0.0
  0
LINE
  8
0
 62
     0
 10
268.332
 20
72.7438
 30
0.0
 11
268.332
 21
69.6433
 31
0.0
  0
LINE
  8
0
 62
     0
 10
268.332
 20
69.6433
 30
0.0
 11
269.131
 21
69.6433
 31
0.0
  0
LINE
  8
0
 62
     0
 10
269.131
 20
69.6433
 30
0.0
 11
269.131
 21
63.8433
 31
0.0
  0
LINE
  8
0
 62
     0
 10
269.131
 20
63.8433
 30
0.0
 11
268.332
 21
63.8433
 31
0.0
  0
LINE
  8
0
 62
     0
 10
268.332
 20
63.8433
 30
0.0
 11
268.332
 21
60.7441
 31
0.0
  0
LINE
  8
0
 62
     0
 10
268.332
 20
60.7441
 30
0.0
 11
269.131
 21
60.7441
 31
0.0
  0
LINE
  8
0
 62
     0
 10
269.131
 20
60.7441
 30
0.0
 11
269.131
 21
59.7436
 31
0.0
  0
LINE
  8
0
 62
     0
 10
269.131
 20
59.7436
 30
0.0
 11
283.132
 21
59.7436
 31
0.0
  0
LINE
  8
0
 62
     0
 10
283.132
 20
59.7436
 30
0.0
 11
283.132
 21
60.7441
 31
0.0
  0
LINE
  8
0
 62
     0
 10
283.132
 20
60.7441
 30
0.0
 11
283.931
 21
60.7441
 31
0.0
  0
LINE
  8
0
 62
     0
 10
283.931
 20
60.7441
 30
0.0
 11
283.931
 21
63.8433
 31
0.0
  0
LINE
  8
0
 62
     0
 10
283.931
 20
63.8433
 30
0.0
 11
283.132
 21
63.8433
 31
0.0
  0
LINE
  8
0
 62
     0
 10
283.132
 20
63.8433
 30
0.0
 11
283.132
 21
69.6433
 31
0.0
  0
LINE
  8
0
 62
     0
 10
283.132
 20
69.6433
 30
0.0
 11
283.931
 21
69.6433
 31
0.0
  0
LINE
  8
0
 62
     0
 10
283.931
 20
69.6433
 30
0.0
 11
283.931
 21
72.7438
 31
0.0
  0
LINE
  8
0
 62
     0
 10
283.931
 20
72.7438
 30
0.0
 11
283.132
 21
72.7438
 31
0.0
  0
LINE
  8
0
 62
     0
 10
283.132
 20
72.7438
 30
0.0
 11
283.132
 21
73.7429
 31
0.0
  0
LINE
  8
0
 62
     0
 10
283.132
 20
73.7429
 30
0.0
 11
269.131
 21
73.7429
 31
0.0
  0
LINE
  8
0
 62
     0
 10
250.081
 20
73.7429
 30
0.0
 11
250.081
 21
72.7438
 31
0.0
  0
LINE
  8
0
 62
     0
 10
250.081
 20
72.7438
 30
0.0
 11
249.283
 21
72.7438
 31
0.0
  0
LINE
  8
0
 62
     0
 10
249.283
 20
72.7438
 30
0.0
 11
249.283
 21
69.6433
 31
0.0
  0
LINE
  8
0
 62
     0
 10
249.283
 20
69.6433
 30
0.0
 11
250.081
 21
69.6433
 31
0.0
  0
LINE
  8
0
 62
     0
 10
250.081
 20
69.6433
 30
0.0
 11
250.081
 21
63.8433
 31
0.0
  0
LINE
  8
0
 62
     0
 10
250.081
 20
63.8433
 30
0.0
 11
249.283
 21
63.8433
 31
0.0
  0
LINE
  8
0
 62
     0
 10
249.283
 20
63.8433
 30
0.0
 11
249.283
 21
60.7441
 31
0.0
  0
LINE
  8
0
 62
     0
 10
249.283
 20
60.7441
 30
0.0
 11
250.081
 21
60.7441
 31
0.0
  0
LINE
  8
0
 62
     0
 10
250.081
 20
60.7441
 30
0.0
 11
250.081
 21
59.7436
 31
0.0
  0
LINE
  8
0
 62
     0
 10
250.081
 20
59.7436
 30
0.0
 11
264.082
 21
59.7436
 31
0.0
  0
LINE
  8
0
 62
     0
 10
264.082
 20
59.7436
 30
0.0
 11
264.082
 21
60.7441
 31
0.0
  0
LINE
  8
0
 62
     0
 10
264.082
 20
60.7441
 30
0.0
 11
264.881
 21
60.7441
 31
0.0
  0
LINE
  8
0
 62
     0
 10
264.881
 20
60.7441
 30
0.0
 11
264.881
 21
63.8433
 31
0.0
  0
LINE
  8
0
 62
     0
 10
264.881
 20
63.8433
 30
0.0
 11
264.082
 21
63.8433
 31
0.0
  0
LINE
  8
0
 62
     0
 10
264.082
 20
63.8433
 30
0.0
 11
264.082
 21
69.6433
 31
0.0
  0
LINE
  8
0
 62
     0
 10
264.082
 20
69.6433
 30
0.0
 11
264.881
 21
69.6433
 31
0.0
  0
LINE
  8
0
 62
     0
 10
264.881
 20
69.6433
 30
0.0
 11
264.881
 21
72.7438
 31
0.0
  0
LINE
  8
0
 62
     0
 10
264.881
 20
72.7438
 30
0.0
 11
264.082
 21
72.7438
 31
0.0
  0
LINE
  8
0
 62
     0
 10
264.082
 20
72.7438
 30
0.0
 11
264.082
 21
73.7429
 31
0.0
  0
LINE
  8
0
 62
     0
 10
264.082
 20
73.7429
 30
0.0
 11
250.081
 21
73.7429
 31
0.0
  0
LINE
  8
0
 62
     0
 10
231.032
 20
73.7429
 30
0.0
 11
231.032
 21
72.7438
 31
0.0
  0
LINE
  8
0
 62
     0
 10
231.032
 20
72.7438
 30
0.0
 11
230.233
 21
72.7438
 31
0.0
  0
LINE
  8
0
 62
     0
 10
230.233
 20
72.7438
 30
0.0
 11
230.233
 21
69.6433
 31
0.0
  0
LINE
  8
0
 62
     0
 10
230.233
 20
69.6433
 30
0.0
 11
231.032
 21
69.6433
 31
0.0
  0
LINE
  8
0
 62
     0
 10
231.032
 20
69.6433
 30
0.0
 11
231.032
 21
63.8433
 31
0.0
  0
LINE
  8
0
 62
     0
 10
231.032
 20
63.8433
 30
0.0
 11
230.233
 21
63.8433
 31
0.0
  0
LINE
  8
0
 62
     0
 10
230.233
 20
63.8433
 30
0.0
 11
230.233
 21
60.7441
 31
0.0
  0
LINE
  8
0
 62
     0
 10
230.233
 20
60.7441
 30
0.0
 11
231.032
 21
60.7441
 31
0.0
  0
LINE
  8
0
 62
     0
 10
231.032
 20
60.7441
 30
0.0
 11
231.032
 21
59.7436
 31
0.0
  0
LINE
  8
0
 62
     0
 10
231.032
 20
59.7436
 30
0.0
 11
245.033
 21
59.7436
 31
0.0
  0
LINE
  8
0
 62
     0
 10
245.033
 20
59.7436
 30
0.0
 11
245.033
 21
60.7441
 31
0.0
  0
LINE
  8
0
 62
     0
 10
245.033
 20
60.7441
 30
0.0
 11
245.831
 21
60.7441
 31
0.0
  0
LINE
  8
0
 62
     0
 10
245.831
 20
60.7441
 30
0.0
 11
245.831
 21
63.8433
 31
0.0
  0
LINE
  8
0
 62
     0
 10
245.831
 20
63.8433
 30
0.0
 11
245.033
 21
63.8433
 31
0.0
  0
LINE
  8
0
 62
     0
 10
245.033
 20
63.8433
 30
0.0
 11
245.033
 21
69.6433
 31
0.0
  0
LINE
  8
0
 62
     0
 10
245.033
 20
69.6433
 30
0.0
 11
245.831
 21
69.6433
 31
0.0
  0
LINE
  8
0
 62
     0
 10
245.831
 20
69.6433
 30
0.0
 11
245.831
 21
72.7438
 31
0.0
  0
LINE
  8
0
 62
     0
 10
245.831
 20
72.7438
 30
0.0
 11
245.033
 21
72.7438
 31
0.0
  0
LINE
  8
0
 62
     0
 10
245.033
 20
72.7438
 30
0.0
 11
245.033
 21
73.7429
 31
0.0
  0
LINE
  8
0
 62
     0
 10
245.033
 20
73.7429
 30
0.0
 11
231.032
 21
73.7429
 31
0.0
  0
LINE
  8
0
 62
     0
 10
211.982
 20
73.7429
 30
0.0
 11
211.982
 21
72.7438
 31
0.0
  0
LINE
  8
0
 62
     0
 10
211.982
 20
72.7438
 30
0.0
 11
211.182
 21
72.7438
 31
0.0
  0
LINE
  8
0
 62
     0
 10
211.182
 20
72.7438
 30
0.0
 11
211.182
 21
69.6433
 31
0.0
  0
LINE
  8
0
 62
     0
 10
211.182
 20
69.6433
 30
0.0
 11
211.982
 21
69.6433
 31
0.0
  0
LINE
  8
0
 62
     0
 10
211.982
 20
69.6433
 30
0.0
 11
211.982
 21
63.8433
 31
0.0
  0
LINE
  8
0
 62
     0
 10
211.982
 20
63.8433
 30
0.0
 11
211.182
 21
63.8433
 31
0.0
  0
LINE
  8
0
 62
     0
 10
211.182
 20
63.8433
 30
0.0
 11
211.182
 21
60.7441
 31
0.0
  0
LINE
  8
0
 62
     0
 10
211.182
 20
60.7441
 30
0.0
 11
211.982
 21
60.7441
 31
0.0
  0
LINE
  8
0
 62
     0
 10
211.982
 20
60.7441
 30
0.0
 11
211.982
 21
59.7436
 31
0.0
  0
LINE
  8
0
 62
     0
 10
211.982
 20
59.7436
 30
0.0
 11
225.983
 21
59.7436
 31
0.0
  0
LINE
  8
0
 62
     0
 10
225.983
 20
59.7436
 30
0.0
 11
225.983
 21
60.7441
 31
0.0
  0
LINE
  8
0
 62
     0
 10
225.983
 20
60.7441
 30
0.0
 11
226.782
 21
60.7441
 31
0.0
  0
LINE
  8
0
 62
     0
 10
226.782
 20
60.7441
 30
0.0
 11
226.782
 21
63.8433
 31
0.0
  0
LINE
  8
0
 62
     0
 10
226.782
 20
63.8433
 30
0.0
 11
225.983
 21
63.8433
 31
0.0
  0
LINE
  8
0
 62
     0
 10
225.983
 20
63.8433
 30
0.0
 11
225.983
 21
69.6433
 31
0.0
  0
LINE
  8
0
 62
     0
 10
225.983
 20
69.6433
 30
0.0
 11
226.782
 21
69.6433
 31
0.0
  0
LINE
  8
0
 62
     0
 10
226.782
 20
69.6433
 30
0.0
 11
226.782
 21
72.7438
 31
0.0
  0
LINE
  8
0
 62
     0
 10
226.782
 20
72.7438
 30
0.0
 11
225.983
 21
72.7438
 31
0.0
  0
LINE
  8
0
 62
     0
 10
225.983
 20
72.7438
 30
0.0
 11
225.983
 21
73.7429
 31
0.0
  0
LINE
  8
0
 62
     0
 10
225.983
 20
73.7429
 30
0.0
 11
211.982
 21
73.7429
 31
0.0
  0
LINE
  8
0
 62
     0
 10
192.931
 20
73.7429
 30
0.0
 11
192.931
 21
72.7438
 31
0.0
  0
LINE
  8
0
 62
     0
 10
192.931
 20
72.7438
 30
0.0
 11
192.133
 21
72.7438
 31
0.0
  0
LINE
  8
0
 62
     0
 10
192.133
 20
72.7438
 30
0.0
 11
192.133
 21
69.6433
 31
0.0
  0
LINE
  8
0
 62
     0
 10
192.133
 20
69.6433
 30
0.0
 11
192.931
 21
69.6433
 31
0.0
  0
LINE
  8
0
 62
     0
 10
192.931
 20
69.6433
 30
0.0
 11
192.931
 21
63.8433
 31
0.0
  0
LINE
  8
0
 62
     0
 10
192.931
 20
63.8433
 30
0.0
 11
192.133
 21
63.8433
 31
0.0
  0
LINE
  8
0
 62
     0
 10
192.133
 20
63.8433
 30
0.0
 11
192.133
 21
60.7441
 31
0.0
  0
LINE
  8
0
 62
     0
 10
192.133
 20
60.7441
 30
0.0
 11
192.931
 21
60.7441
 31
0.0
  0
LINE
  8
0
 62
     0
 10
192.931
 20
60.7441
 30
0.0
 11
192.931
 21
59.7436
 31
0.0
  0
LINE
  8
0
 62
     0
 10
192.931
 20
59.7436
 30
0.0
 11
206.932
 21
59.7436
 31
0.0
  0
LINE
  8
0
 62
     0
 10
206.932
 20
59.7436
 30
0.0
 11
206.932
 21
60.7441
 31
0.0
  0
LINE
  8
0
 62
     0
 10
206.932
 20
60.7441
 30
0.0
 11
207.732
 21
60.7441
 31
0.0
  0
LINE
  8
0
 62
     0
 10
207.732
 20
60.7441
 30
0.0
 11
207.732
 21
63.8433
 31
0.0
  0
LINE
  8
0
 62
     0
 10
207.732
 20
63.8433
 30
0.0
 11
206.932
 21
63.8433
 31
0.0
  0
LINE
  8
0
 62
     0
 10
206.932
 20
63.8433
 30
0.0
 11
206.932
 21
69.6433
 31
0.0
  0
LINE
  8
0
 62
     0
 10
206.932
 20
69.6433
 30
0.0
 11
207.732
 21
69.6433
 31
0.0
  0
LINE
  8
0
 62
     0
 10
207.732
 20
69.6433
 30
0.0
 11
207.732
 21
72.7438
 31
0.0
  0
LINE
  8
0
 62
     0
 10
207.732
 20
72.7438
 30
0.0
 11
206.932
 21
72.7438
 31
0.0
  0
LINE
  8
0
 62
     0
 10
206.932
 20
72.7438
 30
0.0
 11
206.932
 21
73.7429
 31
0.0
  0
LINE
  8
0
 62
     0
 10
206.932
 20
73.7429
 30
0.0
 11
192.931
 21
73.7429
 31
0.0
  0
LINE
  8
0
 62
     0
 10
173.882
 20
73.7429
 30
0.0
 11
173.882
 21
72.7438
 31
0.0
  0
LINE
  8
0
 62
     0
 10
173.882
 20
72.7438
 30
0.0
 11
173.082
 21
72.7438
 31
0.0
  0
LINE
  8
0
 62
     0
 10
173.082
 20
72.7438
 30
0.0
 11
173.082
 21
69.6433
 31
0.0
  0
LINE
  8
0
 62
     0
 10
173.082
 20
69.6433
 30
0.0
 11
173.882
 21
69.6433
 31
0.0
  0
LINE
  8
0
 62
     0
 10
173.882
 20
69.6433
 30
0.0
 11
173.882
 21
63.8433
 31
0.0
  0
LINE
  8
0
 62
     0
 10
173.882
 20
63.8433
 30
0.0
 11
173.082
 21
63.8433
 31
0.0
  0
LINE
  8
0
 62
     0
 10
173.082
 20
63.8433
 30
0.0
 11
173.082
 21
60.7441
 31
0.0
  0
LINE
  8
0
 62
     0
 10
173.082
 20
60.7441
 30
0.0
 11
173.882
 21
60.7441
 31
0.0
  0
LINE
  8
0
 62
     0
 10
173.882
 20
60.7441
 30
0.0
 11
173.882
 21
59.7436
 31
0.0
  0
LINE
  8
0
 62
     0
 10
173.882
 20
59.7436
 30
0.0
 11
187.883
 21
59.7436
 31
0.0
  0
LINE
  8
0
 62
     0
 10
187.883
 20
59.7436
 30
0.0
 11
187.883
 21
60.7441
 31
0.0
  0
LINE
  8
0
 62
     0
 10
187.883
 20
60.7441
 30
0.0
 11
188.681
 21
60.7441
 31
0.0
  0
LINE
  8
0
 62
     0
 10
188.681
 20
60.7441
 30
0.0
 11
188.681
 21
63.8433
 31
0.0
  0
LINE
  8
0
 62
     0
 10
188.681
 20
63.8433
 30
0.0
 11
187.883
 21
63.8433
 31
0.0
  0
LINE
  8
0
 62
     0
 10
187.883
 20
63.8433
 30
0.0
 11
187.883
 21
69.6433
 31
0.0
  0
LINE
  8
0
 62
     0
 10
187.883
 20
69.6433
 30
0.0
 11
188.681
 21
69.6433
 31
0.0
  0
LINE
  8
0
 62
     0
 10
188.681
 20
69.6433
 30
0.0
 11
188.681
 21
72.7438
 31
0.0
  0
LINE
  8
0
 62
     0
 10
188.681
 20
72.7438
 30
0.0
 11
187.883
 21
72.7438
 31
0.0
  0
LINE
  8
0
 62
     0
 10
187.883
 20
72.7438
 30
0.0
 11
187.883
 21
73.7429
 31
0.0
  0
LINE
  8
0
 62
     0
 10
187.883
 20
73.7429
 30
0.0
 11
173.882
 21
73.7429
 31
0.0
  0
LINE
  8
0
 62
     0
 10
97.6824
 20
73.7429
 30
0.0
 11
97.6824
 21
72.7438
 31
0.0
  0
LINE
  8
0
 62
     0
 10
97.6824
 20
72.7438
 30
0.0
 11
96.883
 21
72.7438
 31
0.0
  0
LINE
  8
0
 62
     0
 10
96.883
 20
72.7438
 30
0.0
 11
96.883
 21
69.6433
 31
0.0
  0
LINE
  8
0
 62
     0
 10
96.883
 20
69.6433
 30
0.0
 11
97.6824
 21
69.6433
 31
0.0
  0
LINE
  8
0
 62
     0
 10
97.6824
 20
69.6433
 30
0.0
 11
97.6824
 21
63.8433
 31
0.0
  0
LINE
  8
0
 62
     0
 10
97.6824
 20
63.8433
 30
0.0
 11
96.883
 21
63.8433
 31
0.0
  0
LINE
  8
0
 62
     0
 10
96.883
 20
63.8433
 30
0.0
 11
96.883
 21
60.7441
 31
0.0
  0
LINE
  8
0
 62
     0
 10
96.883
 20
60.7441
 30
0.0
 11
97.6824
 21
60.7441
 31
0.0
  0
LINE
  8
0
 62
     0
 10
97.6824
 20
60.7441
 30
0.0
 11
97.6824
 21
59.7436
 31
0.0
  0
LINE
  8
0
 62
     0
 10
97.6824
 20
59.7436
 30
0.0
 11
111.683
 21
59.7436
 31
0.0
  0
LINE
  8
0
 62
     0
 10
111.683
 20
59.7436
 30
0.0
 11
111.683
 21
60.7441
 31
0.0
  0
LINE
  8
0
 62
     0
 10
111.683
 20
60.7441
 30
0.0
 11
112.482
 21
60.7441
 31
0.0
  0
LINE
  8
0
 62
     0
 10
112.482
 20
60.7441
 30
0.0
 11
112.482
 21
63.8433
 31
0.0
  0
LINE
  8
0
 62
     0
 10
112.482
 20
63.8433
 30
0.0
 11
111.683
 21
63.8433
 31
0.0
  0
LINE
  8
0
 62
     0
 10
111.683
 20
63.8433
 30
0.0
 11
111.683
 21
69.6433
 31
0.0
  0
LINE
  8
0
 62
     0
 10
111.683
 20
69.6433
 30
0.0
 11
112.482
 21
69.6433
 31
0.0
  0
LINE
  8
0
 62
     0
 10
112.482
 20
69.6433
 30
0.0
 11
112.482
 21
72.7438
 31
0.0
  0
LINE
  8
0
 62
     0
 10
112.482
 20
72.7438
 30
0.0
 11
111.683
 21
72.7438
 31
0.0
  0
LINE
  8
0
 62
     0
 10
111.683
 20
72.7438
 30
0.0
 11
111.683
 21
73.7429
 31
0.0
  0
LINE
  8
0
 62
     0
 10
111.683
 20
73.7429
 30
0.0
 11
97.6824
 21
73.7429
 31
0.0
  0
LINE
  8
0
 62
     0
 10
78.6324
 20
73.7429
 30
0.0
 11
78.6324
 21
72.7438
 31
0.0
  0
LINE
  8
0
 62
     0
 10
78.6324
 20
72.7438
 30
0.0
 11
77.8316
 21
72.7438
 31
0.0
  0
LINE
  8
0
 62
     0
 10
77.8316
 20
72.7438
 30
0.0
 11
77.8316
 21
69.6433
 31
0.0
  0
LINE
  8
0
 62
     0
 10
77.8316
 20
69.6433
 30
0.0
 11
78.6324
 21
69.6433
 31
0.0
  0
LINE
  8
0
 62
     0
 10
78.6324
 20
69.6433
 30
0.0
 11
78.6324
 21
63.8433
 31
0.0
  0
LINE
  8
0
 62
     0
 10
78.6324
 20
63.8433
 30
0.0
 11
77.8316
 21
63.8433
 31
0.0
  0
LINE
  8
0
 62
     0
 10
77.8316
 20
63.8433
 30
0.0
 11
77.8316
 21
60.7441
 31
0.0
  0
LINE
  8
0
 62
     0
 10
77.8316
 20
60.7441
 30
0.0
 11
78.6324
 21
60.7441
 31
0.0
  0
LINE
  8
0
 62
     0
 10
78.6324
 20
60.7441
 30
0.0
 11
78.6324
 21
59.7436
 31
0.0
  0
LINE
  8
0
 62
     0
 10
78.6324
 20
59.7436
 30
0.0
 11
92.6331
 21
59.7436
 31
0.0
  0
LINE
  8
0
 62
     0
 10
92.6331
 20
59.7436
 30
0.0
 11
92.6331
 21
60.7441
 31
0.0
  0
LINE
  8
0
 62
     0
 10
92.6331
 20
60.7441
 30
0.0
 11
93.4325
 21
60.7441
 31
0.0
  0
LINE
  8
0
 62
     0
 10
93.4325
 20
60.7441
 30
0.0
 11
93.4325
 21
63.8433
 31
0.0
  0
LINE
  8
0
 62
     0
 10
93.4325
 20
63.8433
 30
0.0
 11
92.6331
 21
63.8433
 31
0.0
  0
LINE
  8
0
 62
     0
 10
92.6331
 20
63.8433
 30
0.0
 11
92.6331
 21
69.6433
 31
0.0
  0
LINE
  8
0
 62
     0
 10
92.6331
 20
69.6433
 30
0.0
 11
93.4325
 21
69.6433
 31
0.0
  0
LINE
  8
0
 62
     0
 10
93.4325
 20
69.6433
 30
0.0
 11
93.4325
 21
72.7438
 31
0.0
  0
LINE
  8
0
 62
     0
 10
93.4325
 20
72.7438
 30
0.0
 11
92.6331
 21
72.7438
 31
0.0
  0
LINE
  8
0
 62
     0
 10
92.6331
 20
72.7438
 30
0.0
 11
92.6331
 21
73.7429
 31
0.0
  0
LINE
  8
0
 62
     0
 10
92.6331
 20
73.7429
 30
0.0
 11
78.6324
 21
73.7429
 31
0.0
  0
LINE
  8
0
 62
     0
 10
59.581
 20
73.7429
 30
0.0
 11
59.581
 21
72.7438
 31
0.0
  0
LINE
  8
0
 62
     0
 10
59.581
 20
72.7438
 30
0.0
 11
58.7816
 21
72.7438
 31
0.0
  0
LINE
  8
0
 62
     0
 10
58.7816
 20
72.7438
 30
0.0
 11
58.7816
 21
69.6433
 31
0.0
  0
LINE
  8
0
 62
     0
 10
58.7816
 20
69.6433
 30
0.0
 11
59.581
 21
69.6433
 31
0.0
  0
LINE
  8
0
 62
     0
 10
59.581
 20
69.6433
 30
0.0
 11
59.581
 21
63.8433
 31
0.0
  0
LINE
  8
0
 62
     0
 10
59.581
 20
63.8433
 30
0.0
 11
58.7816
 21
63.8433
 31
0.0
  0
LINE
  8
0
 62
     0
 10
58.7816
 20
63.8433
 30
0.0
 11
58.7816
 21
60.7441
 31
0.0
  0
LINE
  8
0
 62
     0
 10
58.7816
 20
60.7441
 30
0.0
 11
59.581
 21
60.7441
 31
0.0
  0
LINE
  8
0
 62
     0
 10
59.581
 20
60.7441
 30
0.0
 11
59.581
 21
59.7436
 31
0.0
  0
LINE
  8
0
 62
     0
 10
59.581
 20
59.7436
 30
0.0
 11
73.5817
 21
59.7436
 31
0.0
  0
LINE
  8
0
 62
     0
 10
73.5817
 20
59.7436
 30
0.0
 11
73.5817
 21
60.7441
 31
0.0
  0
LINE
  8
0
 62
     0
 10
73.5817
 20
60.7441
 30
0.0
 11
74.3825
 21
60.7441
 31
0.0
  0
LINE
  8
0
 62
     0
 10
74.3825
 20
60.7441
 30
0.0
 11
74.3825
 21
63.8433
 31
0.0
  0
LINE
  8
0
 62
     0
 10
74.3825
 20
63.8433
 30
0.0
 11
73.5817
 21
63.8433
 31
0.0
  0
LINE
  8
0
 62
     0
 10
73.5817
 20
63.8433
 30
0.0
 11
73.5817
 21
69.6433
 31
0.0
  0
LINE
  8
0
 62
     0
 10
73.5817
 20
69.6433
 30
0.0
 11
74.3825
 21
69.6433
 31
0.0
  0
LINE
  8
0
 62
     0
 10
74.3825
 20
69.6433
 30
0.0
 11
74.3825
 21
72.7438
 31
0.0
  0
LINE
  8
0
 62
     0
 10
74.3825
 20
72.7438
 30
0.0
 11
73.5817
 21
72.7438
 31
0.0
  0
LINE
  8
0
 62
     0
 10
73.5817
 20
72.7438
 30
0.0
 11
73.5817
 21
73.7429
 31
0.0
  0
LINE
  8
0
 62
     0
 10
73.5817
 20
73.7429
 30
0.0
 11
59.581
 21
73.7429
 31
0.0
  0
LINE
  8
0
 62
     0
 10
40.531
 20
73.7429
 30
0.0
 11
40.531
 21
72.7438
 31
0.0
  0
LINE
  8
0
 62
     0
 10
40.531
 20
72.7438
 30
0.0
 11
39.7316
 21
72.7438
 31
0.0
  0
LINE
  8
0
 62
     0
 10
39.7316
 20
72.7438
 30
0.0
 11
39.7316
 21
69.6433
 31
0.0
  0
LINE
  8
0
 62
     0
 10
39.7316
 20
69.6433
 30
0.0
 11
40.531
 21
69.6433
 31
0.0
  0
LINE
  8
0
 62
     0
 10
40.531
 20
69.6433
 30
0.0
 11
40.531
 21
63.8433
 31
0.0
  0
LINE
  8
0
 62
     0
 10
40.531
 20
63.8433
 30
0.0
 11
39.7316
 21
63.8433
 31
0.0
  0
LINE
  8
0
 62
     0
 10
39.7316
 20
63.8433
 30
0.0
 11
39.7316
 21
60.7441
 31
0.0
  0
LINE
  8
0
 62
     0
 10
39.7316
 20
60.7441
 30
0.0
 11
40.531
 21
60.7441
 31
0.0
  0
LINE
  8
0
 62
     0
 10
40.531
 20
60.7441
 30
0.0
 11
40.531
 21
59.7436
 31
0.0
  0
LINE
  8
0
 62
     0
 10
40.531
 20
59.7436
 30
0.0
 11
54.5317
 21
59.7436
 31
0.0
  0
LINE
  8
0
 62
     0
 10
54.5317
 20
59.7436
 30
0.0
 11
54.5317
 21
60.7441
 31
0.0
  0
LINE
  8
0
 62
     0
 10
54.5317
 20
60.7441
 30
0.0
 11
55.3311
 21
60.7441
 31
0.0
  0
LINE
  8
0
 62
     0
 10
55.3311
 20
60.7441
 30
0.0
 11
55.3311
 21
63.8433
 31
0.0
  0
LINE
  8
0
 62
     0
 10
55.3311
 20
63.8433
 30
0.0
 11
54.5317
 21
63.8433
 31
0.0
  0
LINE
  8
0
 62
     0
 10
54.5317
 20
63.8433
 30
0.0
 11
54.5317
 21
69.6433
 31
0.0
  0
LINE
  8
0
 62
     0
 10
54.5317
 20
69.6433
 30
0.0
 11
55.3311
 21
69.6433
 31
0.0
  0
LINE
  8
0
 62
     0
 10
55.3311
 20
69.6433
 30
0.0
 11
55.3311
 21
72.7438
 31
0.0
  0
LINE
  8
0
 62
     0
 10
55.3311
 20
72.7438
 30
0.0
 11
54.5317
 21
72.7438
 31
0.0
  0
LINE
  8
0
 62
     0
 10
54.5317
 20
72.7438
 30
0.0
 11
54.5317
 21
73.7429
 31
0.0
  0
LINE
  8
0
 62
     0
 10
54.5317
 20
73.7429
 30
0.0
 11
40.531
 21
73.7429
 31
0.0
  0
LINE
  8
0
 62
     0
 10
21.4809
 20
73.7429
 30
0.0
 11
21.4809
 21
72.7438
 31
0.0
  0
LINE
  8
0
 62
     0
 10
21.4809
 20
72.7438
 30
0.0
 11
20.683
 21
72.7438
 31
0.0
  0
LINE
  8
0
 62
     0
 10
20.683
 20
72.7438
 30
0.0
 11
20.683
 21
69.6433
 31
0.0
  0
LINE
  8
0
 62
     0
 10
20.683
 20
69.6433
 30
0.0
 11
21.4809
 21
69.6433
 31
0.0
  0
LINE
  8
0
 62
     0
 10
21.4809
 20
69.6433
 30
0.0
 11
21.4809
 21
63.8433
 31
0.0
  0
LINE
  8
0
 62
     0
 10
21.4809
 20
63.8433
 30
0.0
 11
20.683
 21
63.8433
 31
0.0
  0
LINE
  8
0
 62
     0
 10
20.683
 20
63.8433
 30
0.0
 11
20.683
 21
60.7441
 31
0.0
  0
LINE
  8
0
 62
     0
 10
20.683
 20
60.7441
 30
0.0
 11
21.4809
 21
60.7441
 31
0.0
  0
LINE
  8
0
 62
     0
 10
21.4809
 20
60.7441
 30
0.0
 11
21.4809
 21
59.7436
 31
0.0
  0
LINE
  8
0
 62
     0
 10
21.4809
 20
59.7436
 30
0.0
 11
35.4817
 21
59.7436
 31
0.0
  0
LINE
  8
0
 62
     0
 10
35.4817
 20
59.7436
 30
0.0
 11
35.4817
 21
60.7441
 31
0.0
  0
LINE
  8
0
 62
     0
 10
35.4817
 20
60.7441
 30
0.0
 11
36.2811
 21
60.7441
 31
0.0
  0
LINE
  8
0
 62
     0
 10
36.2811
 20
60.7441
 30
0.0
 11
36.2811
 21
63.8433
 31
0.0
  0
LINE
  8
0
 62
     0
 10
36.2811
 20
63.8433
 30
0.0
 11
35.4817
 21
63.8433
 31
0.0
  0
LINE
  8
0
 62
     0
 10
35.4817
 20
63.8433
 30
0.0
 11
35.4817
 21
69.6433
 31
0.0
  0
LINE
  8
0
 62
     0
 10
35.4817
 20
69.6433
 30
0.0
 11
36.2811
 21
69.6433
 31
0.0
  0
LINE
  8
0
 62
     0
 10
36.2811
 20
69.6433
 30
0.0
 11
36.2811
 21
72.7438
 31
0.0
  0
LINE
  8
0
 62
     0
 10
36.2811
 20
72.7438
 30
0.0
 11
35.4817
 21
72.7438
 31
0.0
  0
LINE
  8
0
 62
     0
 10
35.4817
 20
72.7438
 30
0.0
 11
35.4817
 21
73.7429
 31
0.0
  0
LINE
  8
0
 62
     0
 10
35.4817
 20
73.7429
 30
0.0
 11
21.4809
 21
73.7429
 31
0.0
  0
LINE
  8
0
 62
     0
 10
2.43086
 20
73.7429
 30
0.0
 11
2.43086
 21
72.7438
 31
0.0
  0
LINE
  8
0
 62
     0
 10
2.43086
 20
72.7438
 30
0.0
 11
1.6316
 21
72.7438
 31
0.0
  0
LINE
  8
0
 62
     0
 10
1.6316
 20
72.7438
 30
0.0
 11
1.6316
 21
69.6433
 31
0.0
  0
LINE
  8
0
 62
     0
 10
1.6316
 20
69.6433
 30
0.0
 11
2.43086
 21
69.6433
 31
0.0
  0
LINE
  8
0
 62
     0
 10
2.43086
 20
69.6433
 30
0.0
 11
2.43086
 21
63.8433
 31
0.0
  0
LINE
  8
0
 62
     0
 10
2.43086
 20
63.8433
 30
0.0
 11
1.6316
 21
63.8433
 31
0.0
  0
LINE
  8
0
 62
     0
 10
1.6316
 20
63.8433
 30
0.0
 11
1.6316
 21
60.7441
 31
0.0
  0
LINE
  8
0
 62
     0
 10
1.6316
 20
60.7441
 30
0.0
 11
2.43086
 21
60.7441
 31
0.0
  0
LINE
  8
0
 62
     0
 10
2.43086
 20
60.7441
 30
0.0
 11
2.43086
 21
59.7436
 31
0.0
  0
LINE
  8
0
 62
     0
 10
2.43086
 20
59.7436
 30
0.0
 11
16.4331
 21
59.7436
 31
0.0
  0
LINE
  8
0
 62
     0
 10
16.4331
 20
59.7436
 30
0.0
 11
16.4331
 21
60.7441
 31
0.0
  0
LINE
  8
0
 62
     0
 10
16.4331
 20
60.7441
 30
0.0
 11
17.231
 21
60.7441
 31
0.0
  0
LINE
  8
0
 62
     0
 10
17.231
 20
60.7441
 30
0.0
 11
17.231
 21
63.8433
 31
0.0
  0
LINE
  8
0
 62
     0
 10
17.231
 20
63.8433
 30
0.0
 11
16.4331
 21
63.8433
 31
0.0
  0
LINE
  8
0
 62
     0
 10
16.4331
 20
63.8433
 30
0.0
 11
16.4331
 21
69.6433
 31
0.0
  0
LINE
  8
0
 62
     0
 10
16.4331
 20
69.6433
 30
0.0
 11
17.231
 21
69.6433
 31
0.0
  0
LINE
  8
0
 62
     0
 10
17.231
 20
69.6433
 30
0.0
 11
17.231
 21
72.7438
 31
0.0
  0
LINE
  8
0
 62
     0
 10
17.231
 20
72.7438
 30
0.0
 11
16.4331
 21
72.7438
 31
0.0
  0
LINE
  8
0
 62
     0
 10
16.4331
 20
72.7438
 30
0.0
 11
16.4331
 21
73.7429
 31
0.0
  0
LINE
  8
0
 62
     0
 10
16.4331
 20
73.7429
 30
0.0
 11
2.43086
 21
73.7429
 31
0.0
  0
LINE
  8
0
 62
     0
 10
269.131
 20
92.7929
 30
0.0
 11
269.131
 21
91.7938
 31
0.0
  0
LINE
  8
0
 62
     0
 10
269.131
 20
91.7938
 30
0.0
 11
268.332
 21
91.7938
 31
0.0
  0
LINE
  8
0
 62
     0
 10
268.332
 20
91.7938
 30
0.0
 11
268.332
 21
88.6933
 31
0.0
  0
LINE
  8
0
 62
     0
 10
268.332
 20
88.6933
 30
0.0
 11
269.131
 21
88.6933
 31
0.0
  0
LINE
  8
0
 62
     0
 10
269.131
 20
88.6933
 30
0.0
 11
269.131
 21
82.8933
 31
0.0
  0
LINE
  8
0
 62
     0
 10
269.131
 20
82.8933
 30
0.0
 11
268.332
 21
82.8933
 31
0.0
  0
LINE
  8
0
 62
     0
 10
268.332
 20
82.8933
 30
0.0
 11
268.332
 21
79.7941
 31
0.0
  0
LINE
  8
0
 62
     0
 10
268.332
 20
79.7941
 30
0.0
 11
269.131
 21
79.7941
 31
0.0
  0
LINE
  8
0
 62
     0
 10
269.131
 20
79.7941
 30
0.0
 11
269.131
 21
78.7936
 31
0.0
  0
LINE
  8
0
 62
     0
 10
269.131
 20
78.7936
 30
0.0
 11
283.132
 21
78.7936
 31
0.0
  0
LINE
  8
0
 62
     0
 10
283.132
 20
78.7936
 30
0.0
 11
283.132
 21
79.7941
 31
0.0
  0
LINE
  8
0
 62
     0
 10
283.132
 20
79.7941
 30
0.0
 11
283.931
 21
79.7941
 31
0.0
  0
LINE
  8
0
 62
     0
 10
283.931
 20
79.7941
 30
0.0
 11
283.931
 21
82.8933
 31
0.0
  0
LINE
  8
0
 62
     0
 10
283.931
 20
82.8933
 30
0.0
 11
283.132
 21
82.8933
 31
0.0
  0
LINE
  8
0
 62
     0
 10
283.132
 20
82.8933
 30
0.0
 11
283.132
 21
88.6933
 31
0.0
  0
LINE
  8
0
 62
     0
 10
283.132
 20
88.6933
 30
0.0
 11
283.931
 21
88.6933
 31
0.0
  0
LINE
  8
0
 62
     0
 10
283.931
 20
88.6933
 30
0.0
 11
283.931
 21
91.7938
 31
0.0
  0
LINE
  8
0
 62
     0
 10
283.931
 20
91.7938
 30
0.0
 11
283.132
 21
91.7938
 31
0.0
  0
LINE
  8
0
 62
     0
 10
283.132
 20
91.7938
 30
0.0
 11
283.132
 21
92.7929
 31
0.0
  0
LINE
  8
0
 62
     0
 10
283.132
 20
92.7929
 30
0.0
 11
269.131
 21
92.7929
 31
0.0
  0
LINE
  8
0
 62
     0
 10
250.081
 20
92.7929
 30
0.0
 11
250.081
 21
91.7938
 31
0.0
  0
LINE
  8
0
 62
     0
 10
250.081
 20
91.7938
 30
0.0
 11
249.283
 21
91.7938
 31
0.0
  0
LINE
  8
0
 62
     0
 10
249.283
 20
91.7938
 30
0.0
 11
249.283
 21
88.6933
 31
0.0
  0
LINE
  8
0
 62
     0
 10
249.283
 20
88.6933
 30
0.0
 11
250.081
 21
88.6933
 31
0.0
  0
LINE
  8
0
 62
     0
 10
250.081
 20
88.6933
 30
0.0
 11
250.081
 21
82.8933
 31
0.0
  0
LINE
  8
0
 62
     0
 10
250.081
 20
82.8933
 30
0.0
 11
249.283
 21
82.8933
 31
0.0
  0
LINE
  8
0
 62
     0
 10
249.283
 20
82.8933
 30
0.0
 11
249.283
 21
79.7941
 31
0.0
  0
LINE
  8
0
 62
     0
 10
249.283
 20
79.7941
 30
0.0
 11
250.081
 21
79.7941
 31
0.0
  0
LINE
  8
0
 62
     0
 10
250.081
 20
79.7941
 30
0.0
 11
250.081
 21
78.7936
 31
0.0
  0
LINE
  8
0
 62
     0
 10
250.081
 20
78.7936
 30
0.0
 11
264.082
 21
78.7936
 31
0.0
  0
LINE
  8
0
 62
     0
 10
264.082
 20
78.7936
 30
0.0
 11
264.082
 21
79.7941
 31
0.0
  0
LINE
  8
0
 62
     0
 10
264.082
 20
79.7941
 30
0.0
 11
264.881
 21
79.7941
 31
0.0
  0
LINE
  8
0
 62
     0
 10
264.881
 20
79.7941
 30
0.0
 11
264.881
 21
82.8933
 31
0.0
  0
LINE
  8
0
 62
     0
 10
264.881
 20
82.8933
 30
0.0
 11
264.082
 21
82.8933
 31
0.0
  0
LINE
  8
0
 62
     0
 10
264.082
 20
82.8933
 30
0.0
 11
264.082
 21
88.6933
 31
0.0
  0
LINE
  8
0
 62
     0
 10
264.082
 20
88.6933
 30
0.0
 11
264.881
 21
88.6933
 31
0.0
  0
LINE
  8
0
 62
     0
 10
264.881
 20
88.6933
 30
0.0
 11
264.881
 21
91.7938
 31
0.0
  0
LINE
  8
0
 62
     0
 10
264.881
 20
91.7938
 30
0.0
 11
264.082
 21
91.7938
 31
0.0
  0
LINE
  8
0
 62
     0
 10
264.082
 20
91.7938
 30
0.0
 11
264.082
 21
92.7929
 31
0.0
  0
LINE
  8
0
 62
     0
 10
264.082
 20
92.7929
 30
0.0
 11
250.081
 21
92.7929
 31
0.0
  0
LINE
  8
0
 62
     0
 10
231.032
 20
92.7929
 30
0.0
 11
231.032
 21
91.7938
 31
0.0
  0
LINE
  8
0
 62
     0
 10
231.032
 20
91.7938
 30
0.0
 11
230.233
 21
91.7938
 31
0.0
  0
LINE
  8
0
 62
     0
 10
230.233
 20
91.7938
 30
0.0
 11
230.233
 21
88.6933
 31
0.0
  0
LINE
  8
0
 62
     0
 10
230.233
 20
88.6933
 30
0.0
 11
231.032
 21
88.6933
 31
0.0
  0
LINE
  8
0
 62
     0
 10
231.032
 20
88.6933
 30
0.0
 11
231.032
 21
82.8933
 31
0.0
  0
LINE
  8
0
 62
     0
 10
231.032
 20
82.8933
 30
0.0
 11
230.233
 21
82.8933
 31
0.0
  0
LINE
  8
0
 62
     0
 10
230.233
 20
82.8933
 30
0.0
 11
230.233
 21
79.7941
 31
0.0
  0
LINE
  8
0
 62
     0
 10
230.233
 20
79.7941
 30
0.0
 11
231.032
 21
79.7941
 31
0.0
  0
LINE
  8
0
 62
     0
 10
231.032
 20
79.7941
 30
0.0
 11
231.032
 21
78.7936
 31
0.0
  0
LINE
  8
0
 62
     0
 10
231.032
 20
78.7936
 30
0.0
 11
245.033
 21
78.7936
 31
0.0
  0
LINE
  8
0
 62
     0
 10
245.033
 20
78.7936
 30
0.0
 11
245.033
 21
79.7941
 31
0.0
  0
LINE
  8
0
 62
     0
 10
245.033
 20
79.7941
 30
0.0
 11
245.831
 21
79.7941
 31
0.0
  0
LINE
  8
0
 62
     0
 10
245.831
 20
79.7941
 30
0.0
 11
245.831
 21
82.8933
 31
0.0
  0
LINE
  8
0
 62
     0
 10
245.831
 20
82.8933
 30
0.0
 11
245.033
 21
82.8933
 31
0.0
  0
LINE
  8
0
 62
     0
 10
245.033
 20
82.8933
 30
0.0
 11
245.033
 21
88.6933
 31
0.0
  0
LINE
  8
0
 62
     0
 10
245.033
 20
88.6933
 30
0.0
 11
245.831
 21
88.6933
 31
0.0
  0
LINE
  8
0
 62
     0
 10
245.831
 20
88.6933
 30
0.0
 11
245.831
 21
91.7938
 31
0.0
  0
LINE
  8
0
 62
     0
 10
245.831
 20
91.7938
 30
0.0
 11
245.033
 21
91.7938
 31
0.0
  0
LINE
  8
0
 62
     0
 10
245.033
 20
91.7938
 30
0.0
 11
245.033
 21
92.7929
 31
0.0
  0
LINE
  8
0
 62
     0
 10
245.033
 20
92.7929
 30
0.0
 11
231.032
 21
92.7929
 31
0.0
  0
LINE
  8
0
 62
     0
 10
211.982
 20
92.7929
 30
0.0
 11
211.982
 21
91.7938
 31
0.0
  0
LINE
  8
0
 62
     0
 10
211.982
 20
91.7938
 30
0.0
 11
211.182
 21
91.7938
 31
0.0
  0
LINE
  8
0
 62
     0
 10
211.182
 20
91.7938
 30
0.0
 11
211.182
 21
88.6933
 31
0.0
  0
LINE
  8
0
 62
     0
 10
211.182
 20
88.6933
 30
0.0
 11
211.982
 21
88.6933
 31
0.0
  0
LINE
  8
0
 62
     0
 10
211.982
 20
88.6933
 30
0.0
 11
211.982
 21
82.8933
 31
0.0
  0
LINE
  8
0
 62
     0
 10
211.982
 20
82.8933
 30
0.0
 11
211.182
 21
82.8933
 31
0.0
  0
LINE
  8
0
 62
     0
 10
211.182
 20
82.8933
 30
0.0
 11
211.182
 21
79.7941
 31
0.0
  0
LINE
  8
0
 62
     0
 10
211.182
 20
79.7941
 30
0.0
 11
211.982
 21
79.7941
 31
0.0
  0
LINE
  8
0
 62
     0
 10
211.982
 20
79.7941
 30
0.0
 11
211.982
 21
78.7936
 31
0.0
  0
LINE
  8
0
 62
     0
 10
211.982
 20
78.7936
 30
0.0
 11
225.983
 21
78.7936
 31
0.0
  0
LINE
  8
0
 62
     0
 10
225.983
 20
78.7936
 30
0.0
 11
225.983
 21
79.7941
 31
0.0
  0
LINE
  8
0
 62
     0
 10
225.983
 20
79.7941
 30
0.0
 11
226.782
 21
79.7941
 31
0.0
  0
LINE
  8
0
 62
     0
 10
226.782
 20
79.7941
 30
0.0
 11
226.782
 21
82.8933
 31
0.0
  0
LINE
  8
0
 62
     0
 10
226.782
 20
82.8933
 30
0.0
 11
225.983
 21
82.8933
 31
0.0
  0
LINE
  8
0
 62
     0
 10
225.983
 20
82.8933
 30
0.0
 11
225.983
 21
88.6933
 31
0.0
  0
LINE
  8
0
 62
     0
 10
225.983
 20
88.6933
 30
0.0
 11
226.782
 21
88.6933
 31
0.0
  0
LINE
  8
0
 62
     0
 10
226.782
 20
88.6933
 30
0.0
 11
226.782
 21
91.7938
 31
0.0
  0
LINE
  8
0
 62
     0
 10
226.782
 20
91.7938
 30
0.0
 11
225.983
 21
91.7938
 31
0.0
  0
LINE
  8
0
 62
     0
 10
225.983
 20
91.7938
 30
0.0
 11
225.983
 21
92.7929
 31
0.0
  0
LINE
  8
0
 62
     0
 10
225.983
 20
92.7929
 30
0.0
 11
211.982
 21
92.7929
 31
0.0
  0
LINE
  8
0
 62
     0
 10
192.931
 20
92.7929
 30
0.0
 11
192.931
 21
91.7938
 31
0.0
  0
LINE
  8
0
 62
     0
 10
192.931
 20
91.7938
 30
0.0
 11
192.133
 21
91.7938
 31
0.0
  0
LINE
  8
0
 62
     0
 10
192.133
 20
91.7938
 30
0.0
 11
192.133
 21
88.6933
 31
0.0
  0
LINE
  8
0
 62
     0
 10
192.133
 20
88.6933
 30
0.0
 11
192.931
 21
88.6933
 31
0.0
  0
LINE
  8
0
 62
     0
 10
192.931
 20
88.6933
 30
0.0
 11
192.931
 21
82.8933
 31
0.0
  0
LINE
  8
0
 62
     0
 10
192.931
 20
82.8933
 30
0.0
 11
192.133
 21
82.8933
 31
0.0
  0
LINE
  8
0
 62
     0
 10
192.133
 20
82.8933
 30
0.0
 11
192.133
 21
79.7941
 31
0.0
  0
LINE
  8
0
 62
     0
 10
192.133
 20
79.7941
 30
0.0
 11
192.931
 21
79.7941
 31
0.0
  0
LINE
  8
0
 62
     0
 10
192.931
 20
79.7941
 30
0.0
 11
192.931
 21
78.7936
 31
0.0
  0
LINE
  8
0
 62
     0
 10
192.931
 20
78.7936
 30
0.0
 11
206.932
 21
78.7936
 31
0.0
  0
LINE
  8
0
 62
     0
 10
206.932
 20
78.7936
 30
0.0
 11
206.932
 21
79.7941
 31
0.0
  0
LINE
  8
0
 62
     0
 10
206.932
 20
79.7941
 30
0.0
 11
207.732
 21
79.7941
 31
0.0
  0
LINE
  8
0
 62
     0
 10
207.732
 20
79.7941
 30
0.0
 11
207.732
 21
82.8933
 31
0.0
  0
LINE
  8
0
 62
     0
 10
207.732
 20
82.8933
 30
0.0
 11
206.932
 21
82.8933
 31
0.0
  0
LINE
  8
0
 62
     0
 10
206.932
 20
82.8933
 30
0.0
 11
206.932
 21
88.6933
 31
0.0
  0
LINE
  8
0
 62
     0
 10
206.932
 20
88.6933
 30
0.0
 11
207.732
 21
88.6933
 31
0.0
  0
LINE
  8
0
 62
     0
 10
207.732
 20
88.6933
 30
0.0
 11
207.732
 21
91.7938
 31
0.0
  0
LINE
  8
0
 62
     0
 10
207.732
 20
91.7938
 30
0.0
 11
206.932
 21
91.7938
 31
0.0
  0
LINE
  8
0
 62
     0
 10
206.932
 20
91.7938
 30
0.0
 11
206.932
 21
92.7929
 31
0.0
  0
LINE
  8
0
 62
     0
 10
206.932
 20
92.7929
 30
0.0
 11
192.931
 21
92.7929
 31
0.0
  0
LINE
  8
0
 62
     0
 10
173.882
 20
92.7929
 30
0.0
 11
173.882
 21
91.7938
 31
0.0
  0
LINE
  8
0
 62
     0
 10
173.882
 20
91.7938
 30
0.0
 11
173.082
 21
91.7938
 31
0.0
  0
LINE
  8
0
 62
     0
 10
173.082
 20
91.7938
 30
0.0
 11
173.082
 21
88.6933
 31
0.0
  0
LINE
  8
0
 62
     0
 10
173.082
 20
88.6933
 30
0.0
 11
173.882
 21
88.6933
 31
0.0
  0
LINE
  8
0
 62
     0
 10
173.882
 20
88.6933
 30
0.0
 11
173.882
 21
82.8933
 31
0.0
  0
LINE
  8
0
 62
     0
 10
173.882
 20
82.8933
 30
0.0
 11
173.082
 21
82.8933
 31
0.0
  0
LINE
  8
0
 62
     0
 10
173.082
 20
82.8933
 30
0.0
 11
173.082
 21
79.7941
 31
0.0
  0
LINE
  8
0
 62
     0
 10
173.082
 20
79.7941
 30
0.0
 11
173.882
 21
79.7941
 31
0.0
  0
LINE
  8
0
 62
     0
 10
173.882
 20
79.7941
 30
0.0
 11
173.882
 21
78.7936
 31
0.0
  0
LINE
  8
0
 62
     0
 10
173.882
 20
78.7936
 30
0.0
 11
187.883
 21
78.7936
 31
0.0
  0
LINE
  8
0
 62
     0
 10
187.883
 20
78.7936
 30
0.0
 11
187.883
 21
79.7941
 31
0.0
  0
LINE
  8
0
 62
     0
 10
187.883
 20
79.7941
 30
0.0
 11
188.681
 21
79.7941
 31
0.0
  0
LINE
  8
0
 62
     0
 10
188.681
 20
79.7941
 30
0.0
 11
188.681
 21
82.8933
 31
0.0
  0
LINE
  8
0
 62
     0
 10
188.681
 20
82.8933
 30
0.0
 11
187.883
 21
82.8933
 31
0.0
  0
LINE
  8
0
 62
     0
 10
187.883
 20
82.8933
 30
0.0
 11
187.883
 21
88.6933
 31
0.0
  0
LINE
  8
0
 62
     0
 10
187.883
 20
88.6933
 30
0.0
 11
188.681
 21
88.6933
 31
0.0
  0
LINE
  8
0
 62
     0
 10
188.681
 20
88.6933
 30
0.0
 11
188.681
 21
91.7938
 31
0.0
  0
LINE
  8
0
 62
     0
 10
188.681
 20
91.7938
 30
0.0
 11
187.883
 21
91.7938
 31
0.0
  0
LINE
  8
0
 62
     0
 10
187.883
 20
91.7938
 30
0.0
 11
187.883
 21
92.7929
 31
0.0
  0
LINE
  8
0
 62
     0
 10
187.883
 20
92.7929
 30
0.0
 11
173.882
 21
92.7929
 31
0.0
  0
LINE
  8
0
 62
     0
 10
97.6824
 20
92.7929
 30
0.0
 11
97.6824
 21
91.7938
 31
0.0
  0
LINE
  8
0
 62
     0
 10
97.6824
 20
91.7938
 30
0.0
 11
96.883
 21
91.7938
 31
0.0
  0
LINE
  8
0
 62
     0
 10
96.883
 20
91.7938
 30
0.0
 11
96.883
 21
88.6933
 31
0.0
  0
LINE
  8
0
 62
     0
 10
96.883
 20
88.6933
 30
0.0
 11
97.6824
 21
88.6933
 31
0.0
  0
LINE
  8
0
 62
     0
 10
97.6824
 20
88.6933
 30
0.0
 11
97.6824
 21
82.8933
 31
0.0
  0
LINE
  8
0
 62
     0
 10
97.6824
 20
82.8933
 30
0.0
 11
96.883
 21
82.8933
 31
0.0
  0
LINE
  8
0
 62
     0
 10
96.883
 20
82.8933
 30
0.0
 11
96.883
 21
79.7941
 31
0.0
  0
LINE
  8
0
 62
     0
 10
96.883
 20
79.7941
 30
0.0
 11
97.6824
 21
79.7941
 31
0.0
  0
LINE
  8
0
 62
     0
 10
97.6824
 20
79.7941
 30
0.0
 11
97.6824
 21
78.7936
 31
0.0
  0
LINE
  8
0
 62
     0
 10
97.6824
 20
78.7936
 30
0.0
 11
111.683
 21
78.7936
 31
0.0
  0
LINE
  8
0
 62
     0
 10
111.683
 20
78.7936
 30
0.0
 11
111.683
 21
79.7941
 31
0.0
  0
LINE
  8
0
 62
     0
 10
111.683
 20
79.7941
 30
0.0
 11
112.482
 21
79.7941
 31
0.0
  0
LINE
  8
0
 62
     0
 10
112.482
 20
79.7941
 30
0.0
 11
112.482
 21
82.8933
 31
0.0
  0
LINE
  8
0
 62
     0
 10
112.482
 20
82.8933
 30
0.0
 11
111.683
 21
82.8933
 31
0.0
  0
LINE
  8
0
 62
     0
 10
111.683
 20
82.8933
 30
0.0
 11
111.683
 21
88.6933
 31
0.0
  0
LINE
  8
0
 62
     0
 10
111.683
 20
88.6933
 30
0.0
 11
112.482
 21
88.6933
 31
0.0
  0
LINE
  8
0
 62
     0
 10
112.482
 20
88.6933
 30
0.0
 11
112.482
 21
91.7938
 31
0.0
  0
LINE
  8
0
 62
     0
 10
112.482
 20
91.7938
 30
0.0
 11
111.683
 21
91.7938
 31
0.0
  0
LINE
  8
0
 62
     0
 10
111.683
 20
91.7938
 30
0.0
 11
111.683
 21
92.7929
 31
0.0
  0
LINE
  8
0
 62
     0
 10
111.683
 20
92.7929
 30
0.0
 11
97.6824
 21
92.7929
 31
0.0
  0
LINE
  8
0
 62
     0
 10
78.6324
 20
92.7929
 30
0.0
 11
78.6324
 21
91.7938
 31
0.0
  0
LINE
  8
0
 62
     0
 10
78.6324
 20
91.7938
 30
0.0
 11
77.8316
 21
91.7938
 31
0.0
  0
LINE
  8
0
 62
     0
 10
77.8316
 20
91.7938
 30
0.0
 11
77.8316
 21
88.6933
 31
0.0
  0
LINE
  8
0
 62
     0
 10
77.8316
 20
88.6933
 30
0.0
 11
78.6324
 21
88.6933
 31
0.0
  0
LINE
  8
0
 62
     0
 10
78.6324
 20
88.6933
 30
0.0
 11
78.6324
 21
82.8933
 31
0.0
  0
LINE
  8
0
 62
     0
 10
78.6324
 20
82.8933
 30
0.0
 11
77.8316
 21
82.8933
 31
0.0
  0
LINE
  8
0
 62
     0
 10
77.8316
 20
82.8933
 30
0.0
 11
77.8316
 21
79.7941
 31
0.0
  0
LINE
  8
0
 62
     0
 10
77.8316
 20
79.7941
 30
0.0
 11
78.6324
 21
79.7941
 31
0.0
  0
LINE
  8
0
 62
     0
 10
78.6324
 20
79.7941
 30
0.0
 11
78.6324
 21
78.7936
 31
0.0
  0
LINE
  8
0
 62
     0
 10
78.6324
 20
78.7936
 30
0.0
 11
92.6331
 21
78.7936
 31
0.0
  0
LINE
  8
0
 62
     0
 10
92.6331
 20
78.7936
 30
0.0
 11
92.6331
 21
79.7941
 31
0.0
  0
LINE
  8
0
 62
     0
 10
92.6331
 20
79.7941
 30
0.0
 11
93.4325
 21
79.7941
 31
0.0
  0
LINE
  8
0
 62
     0
 10
93.4325
 20
79.7941
 30
0.0
 11
93.4325
 21
82.8933
 31
0.0
  0
LINE
  8
0
 62
     0
 10
93.4325
 20
82.8933
 30
0.0
 11
92.6331
 21
82.8933
 31
0.0
  0
LINE
  8
0
 62
     0
 10
92.6331
 20
82.8933
 30
0.0
 11
92.6331
 21
88.6933
 31
0.0
  0
LINE
  8
0
 62
     0
 10
92.6331
 20
88.6933
 30
0.0
 11
93.4325
 21
88.6933
 31
0.0
  0
LINE
  8
0
 62
     0
 10
93.4325
 20
88.6933
 30
0.0
 11
93.4325
 21
91.7938
 31
0.0
  0
LINE
  8
0
 62
     0
 10
93.4325
 20
91.7938
 30
0.0
 11
92.6331
 21
91.7938
 31
0.0
  0
LINE
  8
0
 62
     0
 10
92.6331
 20
91.7938
 30
0.0
 11
92.6331
 21
92.7929
 31
0.0
  0
LINE
  8
0
 62
     0
 10
92.6331
 20
92.7929
 30
0.0
 11
78.6324
 21
92.7929
 31
0.0
  0
LINE
  8
0
 62
     0
 10
59.581
 20
92.7929
 30
0.0
 11
59.581
 21
91.7938
 31
0.0
  0
LINE
  8
0
 62
     0
 10
59.581
 20
91.7938
 30
0.0
 11
58.7816
 21
91.7938
 31
0.0
  0
LINE
  8
0
 62
     0
 10
58.7816
 20
91.7938
 30
0.0
 11
58.7816
 21
88.6933
 31
0.0
  0
LINE
  8
0
 62
     0
 10
58.7816
 20
88.6933
 30
0.0
 11
59.581
 21
88.6933
 31
0.0
  0
LINE
  8
0
 62
     0
 10
59.581
 20
88.6933
 30
0.0
 11
59.581
 21
82.8933
 31
0.0
  0
LINE
  8
0
 62
     0
 10
59.581
 20
82.8933
 30
0.0
 11
58.7816
 21
82.8933
 31
0.0
  0
LINE
  8
0
 62
     0
 10
58.7816
 20
82.8933
 30
0.0
 11
58.7816
 21
79.7941
 31
0.0
  0
LINE
  8
0
 62
     0
 10
58.7816
 20
79.7941
 30
0.0
 11
59.581
 21
79.7941
 31
0.0
  0
LINE
  8
0
 62
     0
 10
59.581
 20
79.7941
 30
0.0
 11
59.581
 21
78.7936
 31
0.0
  0
LINE
  8
0
 62
     0
 10
59.581
 20
78.7936
 30
0.0
 11
73.5817
 21
78.7936
 31
0.0
  0
LINE
  8
0
 62
     0
 10
73.5817
 20
78.7936
 30
0.0
 11
73.5817
 21
79.7941
 31
0.0
  0
LINE
  8
0
 62
     0
 10
73.5817
 20
79.7941
 30
0.0
 11
74.3825
 21
79.7941
 31
0.0
  0
LINE
  8
0
 62
     0
 10
74.3825
 20
79.7941
 30
0.0
 11
74.3825
 21
82.8933
 31
0.0
  0
LINE
  8
0
 62
     0
 10
74.3825
 20
82.8933
 30
0.0
 11
73.5817
 21
82.8933
 31
0.0
  0
LINE
  8
0
 62
     0
 10
73.5817
 20
82.8933
 30
0.0
 11
73.5817
 21
88.6933
 31
0.0
  0
LINE
  8
0
 62
     0
 10
73.5817
 20
88.6933
 30
0.0
 11
74.3825
 21
88.6933
 31
0.0
  0
LINE
  8
0
 62
     0
 10
74.3825
 20
88.6933
 30
0.0
 11
74.3825
 21
91.7938
 31
0.0
  0
LINE
  8
0
 62
     0
 10
74.3825
 20
91.7938
 30
0.0
 11
73.5817
 21
91.7938
 31
0.0
  0
LINE
  8
0
 62
     0
 10
73.5817
 20
91.7938
 30
0.0
 11
73.5817
 21
92.7929
 31
0.0
  0
LINE
  8
0
 62
     0
 10
73.5817
 20
92.7929
 30
0.0
 11
59.581
 21
92.7929
 31
0.0
  0
LINE
  8
0
 62
     0
 10
40.531
 20
92.7929
 30
0.0
 11
40.531
 21
91.7938
 31
0.0
  0
LINE
  8
0
 62
     0
 10
40.531
 20
91.7938
 30
0.0
 11
39.7316
 21
91.7938
 31
0.0
  0
LINE
  8
0
 62
     0
 10
39.7316
 20
91.7938
 30
0.0
 11
39.7316
 21
88.6933
 31
0.0
  0
LINE
  8
0
 62
     0
 10
39.7316
 20
88.6933
 30
0.0
 11
40.531
 21
88.6933
 31
0.0
  0
LINE
  8
0
 62
     0
 10
40.531
 20
88.6933
 30
0.0
 11
40.531
 21
82.8933
 31
0.0
  0
LINE
  8
0
 62
     0
 10
40.531
 20
82.8933
 30
0.0
 11
39.7316
 21
82.8933
 31
0.0
  0
LINE
  8
0
 62
     0
 10
39.7316
 20
82.8933
 30
0.0
 11
39.7316
 21
79.7941
 31
0.0
  0
LINE
  8
0
 62
     0
 10
39.7316
 20
79.7941
 30
0.0
 11
40.531
 21
79.7941
 31
0.0
  0
LINE
  8
0
 62
     0
 10
40.531
 20
79.7941
 30
0.0
 11
40.531
 21
78.7936
 31
0.0
  0
LINE
  8
0
 62
     0
 10
40.531
 20
78.7936
 30
0.0
 11
54.5317
 21
78.7936
 31
0.0
  0
LINE
  8
0
 62
     0
 10
54.5317
 20
78.7936
 30
0.0
 11
54.5317
 21
79.7941
 31
0.0
  0
LINE
  8
0
 62
     0
 10
54.5317
 20
79.7941
 30
0.0
 11
55.3311
 21
79.7941
 31
0.0
  0
LINE
  8
0
 62
     0
 10
55.3311
 20
79.7941
 30
0.0
 11
55.3311
 21
82.8933
 31
0.0
  0
LINE
  8
0
 62
     0
 10
55.3311
 20
82.8933
 30
0.0
 11
54.5317
 21
82.8933
 31
0.0
  0
LINE
  8
0
 62
     0
 10
54.5317
 20
82.8933
 30
0.0
 11
54.5317
 21
88.6933
 31
0.0
  0
LINE
  8
0
 62
     0
 10
54.5317
 20
88.6933
 30
0.0
 11
55.3311
 21
88.6933
 31
0.0
  0
LINE
  8
0
 62
     0
 10
55.3311
 20
88.6933
 30
0.0
 11
55.3311
 21
91.7938
 31
0.0
  0
LINE
  8
0
 62
     0
 10
55.3311
 20
91.7938
 30
0.0
 11
54.5317
 21
91.7938
 31
0.0
  0
LINE
  8
0
 62
     0
 10
54.5317
 20
91.7938
 30
0.0
 11
54.5317
 21
92.7929
 31
0.0
  0
LINE
  8
0
 62
     0
 10
54.5317
 20
92.7929
 30
0.0
 11
40.531
 21
92.7929
 31
0.0
  0
LINE
  8
0
 62
     0
 10
21.4809
 20
92.7929
 30
0.0
 11
21.4809
 21
91.7938
 31
0.0
  0
LINE
  8
0
 62
     0
 10
21.4809
 20
91.7938
 30
0.0
 11
20.683
 21
91.7938
 31
0.0
  0
LINE
  8
0
 62
     0
 10
20.683
 20
91.7938
 30
0.0
 11
20.683
 21
88.6933
 31
0.0
  0
LINE
  8
0
 62
     0
 10
20.683
 20
88.6933
 30
0.0
 11
21.4809
 21
88.6933
 31
0.0
  0
LINE
  8
0
 62
     0
 10
21.4809
 20
88.6933
 30
0.0
 11
21.4809
 21
82.8933
 31
0.0
  0
LINE
  8
0
 62
     0
 10
21.4809
 20
82.8933
 30
0.0
 11
20.683
 21
82.8933
 31
0.0
  0
LINE
  8
0
 62
     0
 10
20.683
 20
82.8933
 30
0.0
 11
20.683
 21
79.7941
 31
0.0
  0
LINE
  8
0
 62
     0
 10
20.683
 20
79.7941
 30
0.0
 11
21.4809
 21
79.7941
 31
0.0
  0
LINE
  8
0
 62
     0
 10
21.4809
 20
79.7941
 30
0.0
 11
21.4809
 21
78.7936
 31
0.0
  0
LINE
  8
0
 62
     0
 10
21.4809
 20
78.7936
 30
0.0
 11
35.4817
 21
78.7936
 31
0.0
  0
LINE
  8
0
 62
     0
 10
35.4817
 20
78.7936
 30
0.0
 11
35.4817
 21
79.7941
 31
0.0
  0
LINE
  8
0
 62
     0
 10
35.4817
 20
79.7941
 30
0.0
 11
36.2811
 21
79.7941
 31
0.0
  0
LINE
  8
0
 62
     0
 10
36.2811
 20
79.7941
 30
0.0
 11
36.2811
 21
82.8933
 31
0.0
  0
LINE
  8
0
 62
     0
 10
36.2811
 20
82.8933
 30
0.0
 11
35.4817
 21
82.8933
 31
0.0
  0
LINE
  8
0
 62
     0
 10
35.4817
 20
82.8933
 30
0.0
 11
35.4817
 21
88.6933
 31
0.0
  0
LINE
  8
0
 62
     0
 10
35.4817
 20
88.6933
 30
0.0
 11
36.2811
 21
88.6933
 31
0.0
  0
LINE
  8
0
 62
     0
 10
36.2811
 20
88.6933
 30
0.0
 11
36.2811
 21
91.7938
 31
0.0
  0
LINE
  8
0
 62
     0
 10
36.2811
 20
91.7938
 30
0.0
 11
35.4817
 21
91.7938
 31
0.0
  0
LINE
  8
0
 62
     0
 10
35.4817
 20
91.7938
 30
0.0
 11
35.4817
 21
92.7929
 31
0.0
  0
LINE
  8
0
 62
     0
 10
35.4817
 20
92.7929
 30
0.0
 11
21.4809
 21
92.7929
 31
0.0
  0
LINE
  8
0
 62
     0
 10
2.43086
 20
92.7929
 30
0.0
 11
2.43086
 21
91.7938
 31
0.0
  0
LINE
  8
0
 62
     0
 10
2.43086
 20
91.7938
 30
0.0
 11
1.6316
 21
91.7938
 31
0.0
  0
LINE
  8
0
 62
     0
 10
1.6316
 20
91.7938
 30
0.0
 11
1.6316
 21
88.6933
 31
0.0
  0
LINE
  8
0
 62
     0
 10
1.6316
 20
88.6933
 30
0.0
 11
2.43086
 21
88.6933
 31
0.0
  0
LINE
  8
0
 62
     0
 10
2.43086
 20
88.6933
 30
0.0
 11
2.43086
 21
82.8933
 31
0.0
  0
LINE
  8
0
 62
     0
 10
2.43086
 20
82.8933
 30
0.0
 11
1.6316
 21
82.8933
 31
0.0
  0
LINE
  8
0
 62
     0
 10
1.6316
 20
82.8933
 30
0.0
 11
1.6316
 21
79.7941
 31
0.0
  0
LINE
  8
0
 62
     0
 10
1.6316
 20
79.7941
 30
0.0
 11
2.43086
 21
79.7941
 31
0.0
  0
LINE
  8
0
 62
     0
 10
2.43086
 20
79.7941
 30
0.0
 11
2.43086
 21
78.7936
 31
0.0
  0
LINE
  8
0
 62
     0
 10
2.43086
 20
78.7936
 30
0.0
 11
16.4331
 21
78.7936
 31
0.0
  0
LINE
  8
0
 62
     0
 10
16.4331
 20
78.7936
 30
0.0
 11
16.4331
 21
79.7941
 31
0.0
  0
LINE
  8
0
 62
     0
 10
16.4331
 20
79.7941
 30
0.0
 11
17.231
 21
79.7941
 31
0.0
  0
LINE
  8
0
 62
     0
 10
17.231
 20
79.7941
 30
0.0
 11
17.231
 21
82.8933
 31
0.0
  0
LINE
  8
0
 62
     0
 10
17.231
 20
82.8933
 30
0.0
 11
16.4331
 21
82.8933
 31
0.0
  0
LINE
  8
0
 62
     0
 10
16.4331
 20
82.8933
 30
0.0
 11
16.4331
 21
88.6933
 31
0.0
  0
LINE
  8
0
 62
     0
 10
16.4331
 20
88.6933
 30
0.0
 11
17.231
 21
88.6933
 31
0.0
  0
LINE
  8
0
 62
     0
 10
17.231
 20
88.6933
 30
0.0
 11
17.231
 21
91.7938
 31
0.0
  0
LINE
  8
0
 62
     0
 10
17.231
 20
91.7938
 30
0.0
 11
16.4331
 21
91.7938
 31
0.0
  0
LINE
  8
0
 62
     0
 10
16.4331
 20
91.7938
 30
0.0
 11
16.4331
 21
92.7929
 31
0.0
  0
LINE
  8
0
 62
     0
 10
16.4331
 20
92.7929
 30
0.0
 11
2.43086
 21
92.7929
 31
0.0
  0
ENDSEC
  0
EOF
